<svg xmlns="http://www.w3.org/2000/svg" xmlns:xlink="http://www.w3.org/1999/xlink" width="1920" zoomAndPan="magnify" viewBox="0 0 1440 809.999993" height="1080" preserveAspectRatio="xMidYMid meet" version="1.0"><defs><clipPath id="918466158e"><path d="M 709.324219 106 L 750 106 L 750 119 L 709.324219 119 Z M 709.324219 106 " clip-rule="nonzero"/></clipPath><clipPath id="eb21643acb"><path d="M 834 187 L 884.824219 187 L 884.824219 205.375 L 834 205.375 Z M 834 187 " clip-rule="nonzero"/></clipPath><clipPath id="9b0bb12230"><path d="M 126 306 L 230 306 L 230 391 L 126 391 Z M 126 306 " clip-rule="nonzero"/></clipPath><clipPath id="37f1fd138d"><path d="M 33.65625 214.5625 L 327.890625 58.632812 L 428.683594 248.828125 L 134.445312 404.753906 Z M 33.65625 214.5625 " clip-rule="nonzero"/></clipPath><clipPath id="30c68a4727"><path d="M 33.65625 214.5625 L 327.890625 58.632812 L 428.683594 248.828125 L 134.445312 404.753906 Z M 33.65625 214.5625 " clip-rule="nonzero"/></clipPath><clipPath id="c588ab4a72"><path d="M 134 299 L 222 299 L 222 342 L 134 342 Z M 134 299 " clip-rule="nonzero"/></clipPath><clipPath id="05b8de2e74"><path d="M 33.65625 214.5625 L 327.890625 58.632812 L 428.683594 248.828125 L 134.445312 404.753906 Z M 33.65625 214.5625 " clip-rule="nonzero"/></clipPath><clipPath id="58ac055193"><path d="M 33.65625 214.5625 L 327.890625 58.632812 L 428.683594 248.828125 L 134.445312 404.753906 Z M 33.65625 214.5625 " clip-rule="nonzero"/></clipPath><clipPath id="2ccc03d381"><path d="M 92 289 L 222 289 L 222 318 L 92 318 Z M 92 289 " clip-rule="nonzero"/></clipPath><clipPath id="13c1eb39bf"><path d="M 33.65625 214.5625 L 327.890625 58.632812 L 428.683594 248.828125 L 134.445312 404.753906 Z M 33.65625 214.5625 " clip-rule="nonzero"/></clipPath><clipPath id="ebeb957f7f"><path d="M 33.65625 214.5625 L 327.890625 58.632812 L 428.683594 248.828125 L 134.445312 404.753906 Z M 33.65625 214.5625 " clip-rule="nonzero"/></clipPath><clipPath id="f8c67cf54d"><path d="M 137 277 L 221 277 L 221 283 L 137 283 Z M 137 277 " clip-rule="nonzero"/></clipPath><clipPath id="8569bcab20"><path d="M 33.65625 214.5625 L 327.890625 58.632812 L 428.683594 248.828125 L 134.445312 404.753906 Z M 33.65625 214.5625 " clip-rule="nonzero"/></clipPath><clipPath id="4d1f248dc1"><path d="M 33.65625 214.5625 L 327.890625 58.632812 L 428.683594 248.828125 L 134.445312 404.753906 Z M 33.65625 214.5625 " clip-rule="nonzero"/></clipPath><clipPath id="284689b196"><path d="M 95 234 L 223 234 L 223 274 L 95 274 Z M 95 234 " clip-rule="nonzero"/></clipPath><clipPath id="c054871d3c"><path d="M 33.65625 214.5625 L 327.890625 58.632812 L 428.683594 248.828125 L 134.445312 404.753906 Z M 33.65625 214.5625 " clip-rule="nonzero"/></clipPath><clipPath id="33b66e3741"><path d="M 33.65625 214.5625 L 327.890625 58.632812 L 428.683594 248.828125 L 134.445312 404.753906 Z M 33.65625 214.5625 " clip-rule="nonzero"/></clipPath><clipPath id="7c87fa59a9"><path d="M 128 206 L 221 206 L 221 262 L 128 262 Z M 128 206 " clip-rule="nonzero"/></clipPath><clipPath id="4730646b24"><path d="M 33.65625 214.5625 L 327.890625 58.632812 L 428.683594 248.828125 L 134.445312 404.753906 Z M 33.65625 214.5625 " clip-rule="nonzero"/></clipPath><clipPath id="5d09e8d854"><path d="M 33.65625 214.5625 L 327.890625 58.632812 L 428.683594 248.828125 L 134.445312 404.753906 Z M 33.65625 214.5625 " clip-rule="nonzero"/></clipPath><clipPath id="6a0632aed1"><path d="M 137 165 L 232 165 L 232 259 L 137 259 Z M 137 165 " clip-rule="nonzero"/></clipPath><clipPath id="01a19df330"><path d="M 33.65625 214.5625 L 327.890625 58.632812 L 428.683594 248.828125 L 134.445312 404.753906 Z M 33.65625 214.5625 " clip-rule="nonzero"/></clipPath><clipPath id="6b2c1268a7"><path d="M 33.65625 214.5625 L 327.890625 58.632812 L 428.683594 248.828125 L 134.445312 404.753906 Z M 33.65625 214.5625 " clip-rule="nonzero"/></clipPath><clipPath id="026ce03b2a"><path d="M 181 152 L 240 152 L 240 253 L 181 253 Z M 181 152 " clip-rule="nonzero"/></clipPath><clipPath id="95094f9c79"><path d="M 33.65625 214.5625 L 327.890625 58.632812 L 428.683594 248.828125 L 134.445312 404.753906 Z M 33.65625 214.5625 " clip-rule="nonzero"/></clipPath><clipPath id="630e845d39"><path d="M 33.65625 214.5625 L 327.890625 58.632812 L 428.683594 248.828125 L 134.445312 404.753906 Z M 33.65625 214.5625 " clip-rule="nonzero"/></clipPath><clipPath id="fb90396e44"><path d="M 206 122 L 248 122 L 248 250 L 206 250 Z M 206 122 " clip-rule="nonzero"/></clipPath><clipPath id="153a357b81"><path d="M 33.65625 214.5625 L 327.890625 58.632812 L 428.683594 248.828125 L 134.445312 404.753906 Z M 33.65625 214.5625 " clip-rule="nonzero"/></clipPath><clipPath id="c77dad7b38"><path d="M 33.65625 214.5625 L 327.890625 58.632812 L 428.683594 248.828125 L 134.445312 404.753906 Z M 33.65625 214.5625 " clip-rule="nonzero"/></clipPath><clipPath id="b50bea5370"><path d="M 247 129 L 256 129 L 256 248 L 247 248 Z M 247 129 " clip-rule="nonzero"/></clipPath><clipPath id="54404d8357"><path d="M 33.65625 214.5625 L 327.890625 58.632812 L 428.683594 248.828125 L 134.445312 404.753906 Z M 33.65625 214.5625 " clip-rule="nonzero"/></clipPath><clipPath id="420d77018a"><path d="M 33.65625 214.5625 L 327.890625 58.632812 L 428.683594 248.828125 L 134.445312 404.753906 Z M 33.65625 214.5625 " clip-rule="nonzero"/></clipPath><clipPath id="a054d4e7ac"><path d="M 263 118 L 289 118 L 289 249 L 263 249 Z M 263 118 " clip-rule="nonzero"/></clipPath><clipPath id="26b9475357"><path d="M 33.65625 214.5625 L 327.890625 58.632812 L 428.683594 248.828125 L 134.445312 404.753906 Z M 33.65625 214.5625 " clip-rule="nonzero"/></clipPath><clipPath id="6b92b6f376"><path d="M 33.65625 214.5625 L 327.890625 58.632812 L 428.683594 248.828125 L 134.445312 404.753906 Z M 33.65625 214.5625 " clip-rule="nonzero"/></clipPath><clipPath id="67d63e232a"><path d="M 271 163 L 313 163 L 313 252 L 271 252 Z M 271 163 " clip-rule="nonzero"/></clipPath><clipPath id="7e43dcd476"><path d="M 33.65625 214.5625 L 327.890625 58.632812 L 428.683594 248.828125 L 134.445312 404.753906 Z M 33.65625 214.5625 " clip-rule="nonzero"/></clipPath><clipPath id="041ba8e741"><path d="M 33.65625 214.5625 L 327.890625 58.632812 L 428.683594 248.828125 L 134.445312 404.753906 Z M 33.65625 214.5625 " clip-rule="nonzero"/></clipPath><clipPath id="1f4982d174"><path d="M 279 152 L 363 152 L 363 257 L 279 257 Z M 279 152 " clip-rule="nonzero"/></clipPath><clipPath id="3d820d43f0"><path d="M 33.65625 214.5625 L 327.890625 58.632812 L 428.683594 248.828125 L 134.445312 404.753906 Z M 33.65625 214.5625 " clip-rule="nonzero"/></clipPath><clipPath id="a3e2af1c0d"><path d="M 33.65625 214.5625 L 327.890625 58.632812 L 428.683594 248.828125 L 134.445312 404.753906 Z M 33.65625 214.5625 " clip-rule="nonzero"/></clipPath><clipPath id="5d1bebd5e3"><path d="M 290 193 L 376 193 L 376 259 L 290 259 Z M 290 193 " clip-rule="nonzero"/></clipPath><clipPath id="5125227fa7"><path d="M 33.65625 214.5625 L 327.890625 58.632812 L 428.683594 248.828125 L 134.445312 404.753906 Z M 33.65625 214.5625 " clip-rule="nonzero"/></clipPath><clipPath id="2d637cfb15"><path d="M 33.65625 214.5625 L 327.890625 58.632812 L 428.683594 248.828125 L 134.445312 404.753906 Z M 33.65625 214.5625 " clip-rule="nonzero"/></clipPath><clipPath id="06a7de921e"><path d="M 289 216 L 412 216 L 412 271 L 289 271 Z M 289 216 " clip-rule="nonzero"/></clipPath><clipPath id="b2b81d1dd8"><path d="M 33.65625 214.5625 L 327.890625 58.632812 L 428.683594 248.828125 L 134.445312 404.753906 Z M 33.65625 214.5625 " clip-rule="nonzero"/></clipPath><clipPath id="85162e9388"><path d="M 33.65625 214.5625 L 327.890625 58.632812 L 428.683594 248.828125 L 134.445312 404.753906 Z M 33.65625 214.5625 " clip-rule="nonzero"/></clipPath><clipPath id="7509647aa7"><path d="M 291 258 L 410 258 L 410 279 L 291 279 Z M 291 258 " clip-rule="nonzero"/></clipPath><clipPath id="218b3ced4d"><path d="M 33.65625 214.5625 L 327.890625 58.632812 L 428.683594 248.828125 L 134.445312 404.753906 Z M 33.65625 214.5625 " clip-rule="nonzero"/></clipPath><clipPath id="ebad57e74f"><path d="M 33.65625 214.5625 L 327.890625 58.632812 L 428.683594 248.828125 L 134.445312 404.753906 Z M 33.65625 214.5625 " clip-rule="nonzero"/></clipPath><clipPath id="e02757495f"><path d="M 271 251 L 273 251 L 273 252 L 271 252 Z M 271 251 " clip-rule="nonzero"/></clipPath><clipPath id="a5b075321c"><path d="M 33.65625 214.5625 L 327.890625 58.632812 L 428.683594 248.828125 L 134.445312 404.753906 Z M 33.65625 214.5625 " clip-rule="nonzero"/></clipPath><clipPath id="851ce296b4"><path d="M 33.65625 214.5625 L 327.890625 58.632812 L 428.683594 248.828125 L 134.445312 404.753906 Z M 33.65625 214.5625 " clip-rule="nonzero"/></clipPath><clipPath id="8a39ab1381"><path d="M 1221 283 L 1250 283 L 1250 296.445312 L 1221 296.445312 Z M 1221 283 " clip-rule="nonzero"/></clipPath><clipPath id="e0499da56f"><path d="M 1208.367188 205 L 1218 205 L 1218 225 L 1208.367188 225 Z M 1208.367188 205 " clip-rule="nonzero"/></clipPath><clipPath id="743d4d0477"><path d="M 1246 167.445312 L 1262 167.445312 L 1262 175 L 1246 175 Z M 1246 167.445312 " clip-rule="nonzero"/></clipPath><clipPath id="66ade4a141"><path d="M 1305 167.445312 L 1328 167.445312 L 1328 174 L 1305 174 Z M 1305 167.445312 " clip-rule="nonzero"/></clipPath></defs><path fill="#ffffff" d="M 782.734375 92.351562 C 783.4375 90.96875 785.132812 90.414062 786.519531 91.121094 C 787.902344 91.824219 788.453125 93.519531 787.75 94.902344 L 785.257812 97.925781 C 784.765625 98.890625 783.585938 99.273438 782.621094 98.785156 C 781.65625 98.292969 781.269531 97.113281 781.761719 96.148438 Z M 782.734375 92.351562 " fill-opacity="1" fill-rule="evenodd"/><path fill="#ffffff" d="M 785.527344 96.324219 C 784.046875 96.792969 782.460938 95.976562 781.992188 94.496094 C 781.519531 93.015625 782.335938 91.429688 783.816406 90.960938 C 783.816406 90.960938 793.175781 88.421875 803.570312 91.753906 C 808.917969 93.472656 814.5625 96.675781 819.253906 102.707031 C 819.503906 102.992188 819.472656 103.429688 819.1875 103.679688 C 818.898438 103.933594 818.464844 103.902344 818.210938 103.613281 C 813.273438 98.570312 807.785156 96.164062 802.691406 95.148438 C 793.375 93.289062 785.527344 96.324219 785.527344 96.324219 Z M 785.527344 96.324219 " fill-opacity="1" fill-rule="evenodd"/><path fill="#ffffff" d="M 751.964844 97.296875 C 751.425781 97.761719 750.609375 97.699219 750.144531 97.160156 C 749.679688 96.621094 749.742188 95.804688 750.28125 95.339844 C 750.28125 95.339844 756.996094 89.097656 766.957031 87.46875 C 772.410156 86.574219 778.78125 87.117188 785.59375 90.632812 C 786.941406 91.402344 787.410156 93.125 786.640625 94.472656 C 785.867188 95.820312 784.148438 96.289062 782.800781 95.519531 C 777.359375 92.085938 772.066406 91.191406 767.445312 91.542969 C 758.429688 92.230469 751.964844 97.296875 751.964844 97.296875 Z M 751.964844 97.296875 " fill-opacity="1" fill-rule="evenodd"/><path fill="#ffffff" d="M 830.070312 69.109375 C 830.675781 67.921875 832.132812 67.445312 833.320312 68.050781 C 834.511719 68.65625 834.984375 70.113281 834.378906 71.300781 L 832.238281 73.898438 C 831.816406 74.726562 830.800781 75.054688 829.972656 74.632812 C 829.144531 74.210938 828.8125 73.199219 829.234375 72.371094 Z M 830.070312 69.109375 " fill-opacity="1" fill-rule="evenodd"/><path fill="#ffffff" d="M 832.46875 72.519531 C 831.199219 72.925781 829.835938 72.222656 829.433594 70.949219 C 829.027344 69.679688 829.730469 68.320312 831 67.914062 C 831 67.914062 839.039062 65.734375 847.964844 68.597656 C 852.5625 70.070312 857.40625 72.824219 861.433594 78.003906 C 861.652344 78.25 861.625 78.625 861.378906 78.839844 C 861.132812 79.054688 860.757812 79.03125 860.542969 78.785156 C 856.300781 74.449219 851.585938 72.382812 847.210938 71.511719 C 839.210938 69.914062 832.46875 72.519531 832.46875 72.519531 Z M 832.46875 72.519531 " fill-opacity="1" fill-rule="evenodd"/><path fill="#ffffff" d="M 803.644531 73.355469 C 803.179688 73.753906 802.480469 73.703125 802.082031 73.238281 C 801.683594 72.777344 801.734375 72.074219 802.199219 71.675781 C 802.199219 71.675781 807.964844 66.316406 816.519531 64.914062 C 821.203125 64.148438 826.675781 64.613281 832.527344 67.632812 C 833.683594 68.292969 834.085938 69.773438 833.425781 70.929688 C 832.761719 72.085938 831.285156 72.492188 830.128906 71.828125 C 825.453125 68.882812 820.910156 68.113281 816.9375 68.414062 C 809.199219 69.003906 803.644531 73.355469 803.644531 73.355469 Z M 803.644531 73.355469 " fill-opacity="1" fill-rule="evenodd"/><path fill="#ffffff" d="M 770.496094 66.410156 C 770.917969 65.582031 771.929688 65.25 772.757812 65.671875 C 773.585938 66.09375 773.917969 67.109375 773.496094 67.9375 L 772.003906 69.746094 C 771.710938 70.320312 771.003906 70.550781 770.425781 70.257812 C 769.851562 69.964844 769.621094 69.257812 769.914062 68.679688 Z M 770.496094 66.410156 " fill-opacity="1" fill-rule="evenodd"/><path fill="#ffffff" d="M 772.167969 68.785156 C 771.28125 69.066406 770.332031 68.578125 770.050781 67.691406 C 769.769531 66.808594 770.257812 65.859375 771.144531 65.578125 C 771.144531 65.578125 776.742188 64.058594 782.960938 66.054688 C 786.164062 67.078125 789.539062 68.996094 792.34375 72.605469 C 792.496094 72.777344 792.476562 73.039062 792.304688 73.1875 C 792.132812 73.339844 791.871094 73.320312 791.722656 73.148438 C 788.765625 70.128906 785.484375 68.691406 782.433594 68.082031 C 776.863281 66.972656 772.167969 68.785156 772.167969 68.785156 Z M 772.167969 68.785156 " fill-opacity="1" fill-rule="evenodd"/><path fill="#ffffff" d="M 752.085938 69.367188 C 751.761719 69.644531 751.273438 69.609375 750.996094 69.285156 C 750.71875 68.964844 750.753906 68.476562 751.078125 68.199219 C 751.078125 68.199219 755.09375 64.464844 761.054688 63.488281 C 764.316406 62.953125 768.128906 63.277344 772.207031 65.378906 C 773.011719 65.839844 773.292969 66.871094 772.832031 67.675781 C 772.371094 68.484375 771.339844 68.765625 770.535156 68.304688 C 767.277344 66.25 764.113281 65.714844 761.347656 65.925781 C 755.953125 66.335938 752.085938 69.367188 752.085938 69.367188 Z M 752.085938 69.367188 " fill-opacity="1" fill-rule="evenodd"/><path fill="#ffffff" d="M 804.339844 47.550781 C 804.660156 46.917969 805.433594 46.667969 806.0625 46.988281 C 806.691406 47.308594 806.941406 48.078125 806.621094 48.707031 L 805.488281 50.082031 C 805.265625 50.519531 804.726562 50.695312 804.289062 50.472656 C 803.851562 50.25 803.675781 49.710938 803.898438 49.273438 Z M 804.339844 47.550781 " fill-opacity="1" fill-rule="evenodd"/><path fill="#ffffff" d="M 805.609375 49.355469 C 804.9375 49.566406 804.21875 49.195312 804.003906 48.523438 C 803.789062 47.851562 804.160156 47.128906 804.832031 46.914062 C 804.832031 46.914062 809.089844 45.761719 813.8125 47.277344 C 816.246094 48.058594 818.8125 49.515625 820.941406 52.257812 C 821.058594 52.386719 821.042969 52.585938 820.914062 52.699219 C 820.78125 52.8125 820.585938 52.800781 820.46875 52.667969 C 818.222656 50.375 815.730469 49.28125 813.414062 48.820312 C 809.179688 47.976562 805.609375 49.355469 805.609375 49.355469 Z M 805.609375 49.355469 " fill-opacity="1" fill-rule="evenodd"/><path fill="#ffffff" d="M 790.351562 49.796875 C 790.105469 50.007812 789.734375 49.980469 789.523438 49.734375 C 789.3125 49.488281 789.339844 49.117188 789.585938 48.90625 C 789.585938 48.90625 792.640625 46.070312 797.167969 45.328125 C 799.648438 44.921875 802.542969 45.167969 805.640625 46.765625 C 806.253906 47.117188 806.46875 47.898438 806.117188 48.511719 C 805.765625 49.125 804.984375 49.339844 804.371094 48.988281 C 801.898438 47.429688 799.492188 47.019531 797.390625 47.179688 C 793.292969 47.492188 790.351562 49.796875 790.351562 49.796875 Z M 790.351562 49.796875 " fill-opacity="1" fill-rule="evenodd"/><path fill="#ffffff" d="M 826.96875 125.152344 C 827.722656 123.667969 829.542969 123.074219 831.03125 123.828125 C 832.519531 124.585938 833.113281 126.40625 832.355469 127.894531 L 829.675781 131.140625 C 829.148438 132.175781 827.878906 132.589844 826.84375 132.0625 C 825.808594 131.535156 825.394531 130.265625 825.921875 129.230469 Z M 826.96875 125.152344 " fill-opacity="1" fill-rule="evenodd"/><path fill="#ffffff" d="M 829.964844 129.417969 C 828.378906 129.925781 826.675781 129.046875 826.167969 127.457031 C 825.660156 125.867188 826.542969 124.164062 828.128906 123.65625 C 828.128906 123.65625 838.183594 120.929688 849.347656 124.511719 C 855.09375 126.355469 861.15625 129.796875 866.195312 136.273438 C 866.460938 136.582031 866.429688 137.050781 866.121094 137.320312 C 865.8125 137.589844 865.34375 137.558594 865.074219 137.25 C 859.769531 131.832031 853.875 129.246094 848.402344 128.15625 C 838.394531 126.160156 829.964844 129.417969 829.964844 129.417969 Z M 829.964844 129.417969 " fill-opacity="1" fill-rule="evenodd"/><path fill="#ffffff" d="M 793.914062 130.464844 C 793.335938 130.960938 792.460938 130.898438 791.960938 130.316406 C 791.460938 129.738281 791.527344 128.863281 792.105469 128.363281 C 792.105469 128.363281 799.320312 121.660156 810.019531 119.90625 C 815.878906 118.949219 822.71875 119.527344 830.039062 123.304688 C 831.488281 124.132812 831.988281 125.980469 831.160156 127.429688 C 830.332031 128.878906 828.484375 129.382812 827.039062 128.554688 C 821.191406 124.867188 815.507812 123.90625 810.542969 124.285156 C 800.859375 125.023438 793.914062 130.464844 793.914062 130.464844 Z M 793.914062 130.464844 " fill-opacity="1" fill-rule="evenodd"/><path fill="#ffffff" d="M 745.234375 112.5 C 746 110.996094 747.84375 110.394531 749.347656 111.160156 C 750.851562 111.925781 751.453125 113.769531 750.6875 115.273438 L 747.976562 118.554688 C 747.445312 119.601562 746.160156 120.019531 745.113281 119.488281 C 744.0625 118.957031 743.644531 117.671875 744.179688 116.625 Z M 745.234375 112.5 " fill-opacity="1" fill-rule="evenodd"/><path fill="#ffffff" d="M 748.269531 116.8125 C 746.660156 117.324219 744.941406 116.4375 744.429688 114.828125 C 743.914062 113.222656 744.804688 111.5 746.414062 110.988281 C 746.414062 110.988281 756.582031 108.226562 767.875 111.851562 C 773.6875 113.714844 779.816406 117.199219 784.914062 123.75 C 785.1875 124.0625 785.152344 124.535156 784.84375 124.808594 C 784.53125 125.082031 784.054688 125.050781 783.785156 124.738281 C 778.417969 119.253906 772.453125 116.640625 766.917969 115.539062 C 756.796875 113.519531 748.269531 116.8125 748.269531 116.8125 Z M 748.269531 116.8125 " fill-opacity="1" fill-rule="evenodd"/><g clip-path="url(#918466158e)"><path fill="#ffffff" d="M 711.804688 117.871094 C 711.214844 118.375 710.332031 118.308594 709.828125 117.722656 C 709.320312 117.136719 709.386719 116.25 709.972656 115.746094 C 709.972656 115.746094 717.269531 108.964844 728.089844 107.195312 C 734.019531 106.222656 740.941406 106.8125 748.34375 110.628906 C 749.808594 111.46875 750.316406 113.335938 749.480469 114.800781 C 748.640625 116.265625 746.773438 116.777344 745.308594 115.9375 C 739.394531 112.210938 733.644531 111.238281 728.621094 111.621094 C 718.828125 112.367188 711.804688 117.871094 711.804688 117.871094 Z M 711.804688 117.871094 " fill-opacity="1" fill-rule="evenodd"/></g><path fill="#ffffff" d="M 770.175781 155.84375 C 771.011719 154.203125 773.023438 153.546875 774.667969 154.382812 C 776.308594 155.21875 776.964844 157.230469 776.128906 158.871094 L 773.171875 162.457031 C 772.585938 163.601562 771.1875 164.058594 770.042969 163.476562 C 768.898438 162.894531 768.441406 161.492188 769.023438 160.347656 Z M 770.175781 155.84375 " fill-opacity="1" fill-rule="evenodd"/><path fill="#ffffff" d="M 773.492188 160.554688 C 771.734375 161.113281 769.855469 160.144531 769.296875 158.386719 C 768.734375 156.632812 769.707031 154.75 771.460938 154.191406 C 771.460938 154.191406 782.566406 151.179688 794.898438 155.136719 C 801.246094 157.171875 807.9375 160.976562 813.503906 168.128906 C 813.800781 168.46875 813.765625 168.988281 813.425781 169.285156 C 813.085938 169.582031 812.566406 169.546875 812.269531 169.207031 C 806.410156 163.21875 799.898438 160.367188 793.851562 159.160156 C 782.800781 156.957031 773.492188 160.554688 773.492188 160.554688 Z M 773.492188 160.554688 " fill-opacity="1" fill-rule="evenodd"/><path fill="#ffffff" d="M 733.671875 161.710938 C 733.03125 162.261719 732.0625 162.1875 731.511719 161.546875 C 730.960938 160.90625 731.035156 159.941406 731.671875 159.390625 C 731.671875 159.390625 739.640625 151.984375 751.457031 150.050781 C 757.929688 148.988281 765.484375 149.632812 773.570312 153.800781 C 775.167969 154.714844 775.726562 156.757812 774.8125 158.359375 C 773.894531 159.957031 771.855469 160.515625 770.253906 159.597656 C 763.796875 155.527344 757.523438 154.464844 752.035156 154.882812 C 741.34375 155.699219 733.671875 161.710938 733.671875 161.710938 Z M 733.671875 161.710938 " fill-opacity="1" fill-rule="evenodd"/><path fill="#ffffff" d="M 835.433594 190.117188 C 836.382812 188.257812 838.664062 187.515625 840.527344 188.460938 C 842.386719 189.40625 843.128906 191.6875 842.183594 193.550781 L 838.828125 197.613281 C 838.167969 198.914062 836.578125 199.429688 835.28125 198.769531 C 833.984375 198.109375 833.46875 196.519531 834.128906 195.222656 Z M 835.433594 190.117188 " fill-opacity="1" fill-rule="evenodd"/><g clip-path="url(#eb21643acb)"><path fill="#ffffff" d="M 839.191406 195.460938 C 837.199219 196.09375 835.070312 194.992188 834.433594 193.003906 C 833.800781 191.011719 834.902344 188.882812 836.890625 188.246094 C 836.890625 188.246094 849.480469 184.832031 863.460938 189.316406 C 870.65625 191.625 878.246094 195.9375 884.554688 204.046875 C 884.890625 204.433594 884.851562 205.019531 884.464844 205.355469 C 884.078125 205.695312 883.492188 205.65625 883.15625 205.269531 C 876.511719 198.480469 869.128906 195.246094 862.277344 193.878906 C 849.746094 191.382812 839.191406 195.460938 839.191406 195.460938 Z M 839.191406 195.460938 " fill-opacity="1" fill-rule="evenodd"/></g><path fill="#ffffff" d="M 794.046875 196.769531 C 793.324219 197.390625 792.226562 197.308594 791.601562 196.585938 C 790.976562 195.859375 791.058594 194.761719 791.785156 194.136719 C 791.785156 194.136719 800.816406 185.742188 814.214844 183.550781 C 821.550781 182.347656 830.117188 183.074219 839.28125 187.804688 C 841.09375 188.839844 841.726562 191.15625 840.6875 192.96875 C 839.652344 194.78125 837.335938 195.414062 835.523438 194.375 C 828.203125 189.761719 821.089844 188.554688 814.871094 189.03125 C 802.746094 189.953125 794.046875 196.769531 794.046875 196.769531 Z M 794.046875 196.769531 " fill-opacity="1" fill-rule="evenodd"/><g clip-path="url(#9b0bb12230)"><g clip-path="url(#37f1fd138d)"><g clip-path="url(#30c68a4727)"><path fill="#ffffff" d="M 126.871094 390.304688 C 127.085938 390.566406 127.476562 390.601562 127.738281 390.386719 L 156.769531 366.492188 C 157.03125 366.277344 157.070312 365.886719 156.855469 365.625 C 156.636719 365.363281 156.25 365.324219 155.984375 365.539062 L 126.953125 389.433594 C 126.691406 389.652344 126.65625 390.039062 126.871094 390.304688 Z M 163.042969 360.53125 C 163.257812 360.792969 163.648438 360.832031 163.910156 360.617188 L 164.863281 359.832031 C 165.125 359.617188 165.160156 359.226562 164.945312 358.964844 C 164.730469 358.703125 164.339844 358.664062 164.078125 358.878906 L 163.125 359.664062 C 162.863281 359.878906 162.828125 360.269531 163.042969 360.53125 Z M 171.128906 353.875 C 171.34375 354.136719 171.734375 354.175781 171.996094 353.957031 L 201.027344 330.0625 C 201.289062 329.847656 201.328125 329.457031 201.113281 329.195312 C 200.894531 328.933594 200.507812 328.894531 200.242188 329.113281 L 171.210938 353.007812 C 170.949219 353.222656 170.914062 353.613281 171.128906 353.875 Z M 207.304688 324.109375 C 207.519531 324.371094 207.90625 324.410156 208.171875 324.191406 L 209.121094 323.410156 C 209.386719 323.191406 209.421875 322.804688 209.207031 322.542969 C 208.992188 322.277344 208.601562 322.242188 208.339844 322.457031 L 207.386719 323.242188 C 207.125 323.457031 207.085938 323.847656 207.304688 324.109375 Z M 215.390625 317.449219 C 215.605469 317.714844 215.996094 317.75 216.257812 317.535156 L 229.03125 307.019531 C 228.894531 306.867188 228.765625 306.707031 228.632812 306.546875 C 228.5 306.386719 228.371094 306.226562 228.246094 306.066406 L 215.472656 316.582031 C 215.210938 316.800781 215.171875 317.1875 215.390625 317.449219 Z M 215.390625 317.449219 " fill-opacity="1" fill-rule="nonzero"/></g></g></g><g clip-path="url(#c588ab4a72)"><g clip-path="url(#05b8de2e74)"><g clip-path="url(#58ac055193)"><path fill="#ffffff" d="M 134.449219 341.566406 C 134.601562 341.875 134.960938 342.003906 135.277344 341.859375 L 169.222656 325.699219 C 169.527344 325.554688 169.660156 325.1875 169.511719 324.875 C 169.488281 324.832031 169.464844 324.789062 169.429688 324.75 C 169.253906 324.539062 168.953125 324.46875 168.6875 324.585938 L 134.734375 340.746094 C 134.429688 340.894531 134.296875 341.261719 134.445312 341.566406 Z M 176.746094 321.433594 C 176.898438 321.742188 177.257812 321.871094 177.570312 321.722656 L 178.683594 321.191406 C 178.996094 321.042969 179.121094 320.675781 178.972656 320.371094 C 178.949219 320.328125 178.925781 320.277344 178.890625 320.238281 C 178.71875 320.03125 178.417969 319.953125 178.148438 320.074219 L 177.035156 320.609375 C 176.730469 320.757812 176.601562 321.117188 176.746094 321.433594 Z M 186.210938 316.925781 C 186.355469 317.238281 186.722656 317.367188 187.027344 317.21875 L 220.980469 301.058594 C 221.296875 300.914062 221.421875 300.546875 221.277344 300.234375 C 221.253906 300.191406 221.230469 300.144531 221.195312 300.109375 C 221.019531 299.894531 220.710938 299.820312 220.453125 299.945312 L 186.5 316.101562 C 186.1875 316.253906 186.0625 316.621094 186.210938 316.925781 Z M 186.210938 316.925781 " fill-opacity="1" fill-rule="nonzero"/></g></g></g><g clip-path="url(#2ccc03d381)"><g clip-path="url(#13c1eb39bf)"><g clip-path="url(#ebeb957f7f)"><path fill="#ffffff" d="M 92.015625 316.660156 C 92.082031 316.996094 92.410156 317.203125 92.742188 317.136719 L 129.59375 309.671875 C 129.925781 309.609375 130.140625 309.277344 130.074219 308.941406 C 130.058594 308.847656 130.011719 308.746094 129.953125 308.679688 C 129.816406 308.507812 129.578125 308.417969 129.351562 308.460938 L 92.5 315.929688 C 92.167969 316 91.949219 316.324219 92.015625 316.660156 Z M 137.933594 307.359375 C 138 307.695312 138.320312 307.90625 138.65625 307.839844 L 139.867188 307.597656 C 140.199219 307.53125 140.410156 307.203125 140.347656 306.875 C 140.328125 306.773438 140.285156 306.675781 140.21875 306.605469 C 140.082031 306.4375 139.84375 306.347656 139.617188 306.390625 L 138.40625 306.632812 C 138.074219 306.703125 137.863281 307.027344 137.925781 307.363281 Z M 148.199219 305.273438 C 148.265625 305.609375 148.585938 305.820312 148.921875 305.757812 L 185.773438 298.289062 C 186.105469 298.222656 186.316406 297.894531 186.253906 297.566406 C 186.234375 297.464844 186.191406 297.367188 186.125 297.296875 C 185.988281 297.128906 185.757812 297.035156 185.523438 297.082031 L 148.675781 304.554688 C 148.339844 304.621094 148.128906 304.941406 148.191406 305.277344 Z M 194.109375 295.976562 C 194.175781 296.3125 194.503906 296.519531 194.832031 296.457031 L 196.042969 296.214844 C 196.378906 296.148438 196.589844 295.820312 196.527344 295.492188 C 196.507812 295.390625 196.464844 295.292969 196.398438 295.226562 C 196.257812 295.054688 196.027344 294.960938 195.792969 295.007812 L 194.585938 295.257812 C 194.257812 295.320312 194.039062 295.644531 194.105469 295.980469 Z M 204.375 293.890625 C 204.441406 294.226562 204.769531 294.4375 205.105469 294.371094 L 221.203125 291.113281 C 221.113281 290.714844 221.035156 290.308594 220.964844 289.90625 L 204.859375 293.175781 C 204.53125 293.238281 204.3125 293.5625 204.378906 293.898438 Z M 204.375 293.890625 " fill-opacity="1" fill-rule="nonzero"/></g></g></g><g clip-path="url(#f8c67cf54d)"><g clip-path="url(#8569bcab20)"><g clip-path="url(#4d1f248dc1)"><path fill="#ffffff" d="M 137.574219 277.894531 C 137.5625 278.238281 137.828125 278.527344 138.167969 278.542969 L 175.722656 280.210938 C 176.066406 280.222656 176.355469 279.964844 176.371094 279.625 C 176.375 279.464844 176.328125 279.320312 176.230469 279.203125 C 176.128906 279.074219 175.960938 278.984375 175.785156 278.980469 L 138.214844 277.3125 C 137.871094 277.296875 137.582031 277.554688 137.570312 277.898438 Z M 184.375 279.976562 C 184.363281 280.320312 184.621094 280.609375 184.96875 280.621094 L 186.199219 280.679688 C 186.542969 280.691406 186.832031 280.433594 186.84375 280.09375 C 186.847656 279.929688 186.796875 279.78125 186.703125 279.671875 C 186.59375 279.542969 186.433594 279.453125 186.253906 279.441406 L 185.023438 279.390625 C 184.6875 279.378906 184.394531 279.640625 184.378906 279.984375 Z M 194.84375 280.445312 C 194.832031 280.777344 195.097656 281.070312 195.4375 281.089844 L 220.460938 282.199219 C 220.46875 281.792969 220.496094 281.378906 220.527344 280.964844 L 195.492188 279.855469 C 195.152344 279.839844 194.859375 280.105469 194.84375 280.445312 Z M 194.84375 280.445312 " fill-opacity="1" fill-rule="nonzero"/></g></g></g><g clip-path="url(#284689b196)"><g clip-path="url(#c054871d3c)"><g clip-path="url(#33b66e3741)"><path fill="#ffffff" d="M 95.820312 235.273438 C 95.722656 235.605469 95.910156 235.945312 96.234375 236.042969 L 132.273438 246.753906 C 132.597656 246.847656 132.945312 246.664062 133.046875 246.335938 C 133.097656 246.136719 133.054688 245.921875 132.933594 245.769531 C 132.851562 245.671875 132.75 245.609375 132.632812 245.574219 L 96.59375 234.863281 C 96.261719 234.765625 95.921875 234.953125 95.820312 235.28125 Z M 140.722656 248.609375 C 140.625 248.941406 140.8125 249.28125 141.136719 249.378906 L 142.320312 249.730469 C 142.644531 249.828125 142.992188 249.640625 143.085938 249.316406 C 143.152344 249.113281 143.101562 248.898438 142.972656 248.75 C 142.898438 248.65625 142.789062 248.589844 142.667969 248.554688 L 141.492188 248.203125 C 141.167969 248.109375 140.824219 248.296875 140.71875 248.617188 Z M 150.769531 251.601562 C 150.675781 251.921875 150.863281 252.269531 151.183594 252.371094 L 187.226562 263.078125 C 187.554688 263.175781 187.894531 262.988281 187.996094 262.664062 C 188.054688 262.457031 188.003906 262.246094 187.882812 262.097656 C 187.804688 262 187.703125 261.933594 187.582031 261.898438 L 151.542969 251.191406 C 151.210938 251.09375 150.871094 251.28125 150.773438 251.605469 Z M 195.667969 264.941406 C 195.574219 265.261719 195.761719 265.605469 196.082031 265.710938 L 197.265625 266.058594 C 197.597656 266.15625 197.9375 265.96875 198.035156 265.644531 C 198.101562 265.441406 198.046875 265.226562 197.921875 265.078125 C 197.847656 264.984375 197.742188 264.914062 197.625 264.878906 L 196.441406 264.53125 C 196.117188 264.433594 195.773438 264.625 195.671875 264.945312 Z M 205.71875 267.925781 C 205.621094 268.257812 205.808594 268.597656 206.132812 268.699219 L 221.914062 273.386719 C 222.03125 273 222.152344 272.597656 222.289062 272.210938 L 206.488281 267.519531 C 206.15625 267.421875 205.816406 267.609375 205.71875 267.9375 Z M 205.71875 267.925781 " fill-opacity="1" fill-rule="nonzero"/></g></g></g><g clip-path="url(#7c87fa59a9)"><g clip-path="url(#4730646b24)"><g clip-path="url(#5d09e8d854)"><path fill="#ffffff" d="M 128.574219 207.296875 C 128.410156 207.589844 128.503906 207.964844 128.796875 208.136719 L 161.175781 227.246094 C 161.46875 227.417969 161.84375 227.324219 162.015625 227.027344 C 162.152344 226.796875 162.121094 226.519531 161.964844 226.324219 C 161.921875 226.269531 161.863281 226.226562 161.800781 226.1875 L 129.421875 207.078125 C 129.128906 206.90625 128.746094 207.003906 128.574219 207.296875 Z M 168.925781 231.105469 C 168.75 231.390625 168.847656 231.773438 169.140625 231.945312 L 170.203125 232.574219 C 170.496094 232.75 170.875 232.644531 171.046875 232.351562 C 171.179688 232.128906 171.148438 231.84375 170.988281 231.652344 C 170.945312 231.597656 170.894531 231.554688 170.824219 231.511719 L 169.765625 230.882812 C 169.472656 230.710938 169.097656 230.808594 168.925781 231.105469 Z M 177.941406 236.425781 C 177.769531 236.71875 177.867188 237.09375 178.15625 237.269531 L 210.542969 256.375 C 210.835938 256.546875 211.210938 256.453125 211.382812 256.15625 C 211.519531 255.925781 211.488281 255.648438 211.332031 255.453125 C 211.289062 255.398438 211.230469 255.355469 211.167969 255.316406 L 178.78125 236.210938 C 178.488281 236.039062 178.113281 236.132812 177.941406 236.425781 Z M 218.292969 260.230469 C 218.121094 260.527344 218.214844 260.902344 218.507812 261.074219 L 219.566406 261.703125 C 219.863281 261.878906 220.234375 261.777344 220.410156 261.488281 C 220.542969 261.257812 220.511719 260.972656 220.355469 260.785156 C 220.3125 260.726562 220.253906 260.683594 220.191406 260.640625 L 219.132812 260.015625 C 218.839844 259.84375 218.460938 259.941406 218.292969 260.230469 Z M 218.292969 260.230469 " fill-opacity="1" fill-rule="nonzero"/></g></g></g><g clip-path="url(#6a0632aed1)"><g clip-path="url(#01a19df330)"><g clip-path="url(#6b2c1268a7)"><path fill="#ffffff" d="M 137.394531 166.074219 L 164.191406 192.441406 C 164.429688 192.683594 164.824219 192.679688 165.058594 192.4375 C 165.285156 192.210938 165.292969 191.851562 165.097656 191.613281 C 165.085938 191.589844 165.070312 191.578125 165.046875 191.5625 L 138.257812 165.1875 C 138.011719 164.949219 137.625 164.953125 137.382812 165.199219 C 137.140625 165.4375 137.140625 165.835938 137.394531 166.074219 Z M 170.777344 198.933594 L 171.652344 199.800781 C 171.898438 200.042969 172.289062 200.039062 172.527344 199.792969 C 172.753906 199.5625 172.761719 199.207031 172.566406 198.96875 C 172.554688 198.949219 172.535156 198.9375 172.519531 198.917969 L 171.640625 198.050781 C 171.394531 197.8125 171.007812 197.816406 170.765625 198.0625 C 170.527344 198.304688 170.53125 198.695312 170.777344 198.933594 Z M 178.242188 206.285156 L 205.039062 232.65625 C 205.277344 232.898438 205.671875 232.890625 205.90625 232.648438 C 206.136719 232.421875 206.140625 232.066406 205.945312 231.828125 C 205.933594 231.804688 205.921875 231.792969 205.898438 231.777344 L 179.105469 205.402344 C 178.863281 205.164062 178.472656 205.167969 178.234375 205.410156 C 177.992188 205.65625 178.003906 206.042969 178.242188 206.285156 Z M 211.625 239.148438 L 212.503906 240.015625 C 212.75 240.253906 213.136719 240.25 213.378906 240.003906 C 213.605469 239.78125 213.613281 239.421875 213.414062 239.183594 C 213.402344 239.160156 213.390625 239.148438 213.367188 239.132812 L 212.488281 238.265625 C 212.25 238.023438 211.855469 238.027344 211.617188 238.273438 C 211.382812 238.515625 211.378906 238.910156 211.625 239.148438 Z M 219.097656 246.496094 L 230.972656 258.179688 C 231.261719 257.894531 231.5625 257.601562 231.863281 257.332031 L 219.964844 245.617188 C 219.71875 245.378906 219.332031 245.382812 219.089844 245.628906 C 218.851562 245.871094 218.855469 246.261719 219.101562 246.5 Z M 219.097656 246.496094 " fill-opacity="1" fill-rule="nonzero"/></g></g></g><g clip-path="url(#026ce03b2a)"><g clip-path="url(#95094f9c79)"><g clip-path="url(#630e845d39)"><path fill="#ffffff" d="M 239.082031 252.089844 C 239.003906 252.097656 238.925781 252.121094 238.855469 252.160156 C 238.789062 252.195312 238.734375 252.246094 238.683594 252.300781 C 238.820312 252.226562 238.953125 252.15625 239.082031 252.089844 Z M 233.429688 243.910156 L 234.039062 244.980469 C 234.210938 245.273438 234.582031 245.375 234.878906 245.207031 C 235.175781 245.046875 235.273438 244.664062 235.105469 244.375 L 234.492188 243.296875 C 234.480469 243.269531 234.457031 243.238281 234.433594 243.210938 C 234.25 242.984375 233.921875 242.917969 233.65625 243.070312 C 233.363281 243.242188 233.261719 243.617188 233.429688 243.910156 Z M 210.167969 203.242188 L 228.832031 235.882812 C 229.007812 236.179688 229.378906 236.277344 229.679688 236.109375 C 229.972656 235.941406 230.070312 235.558594 229.90625 235.273438 L 211.242188 202.632812 C 211.222656 202.597656 211.210938 202.570312 211.1875 202.542969 C 210.996094 202.316406 210.667969 202.25 210.40625 202.398438 C 210.105469 202.570312 210.007812 202.949219 210.175781 203.242188 Z M 204.964844 194.148438 L 205.585938 195.222656 C 205.753906 195.515625 206.128906 195.617188 206.417969 195.449219 C 206.714844 195.277344 206.816406 194.902344 206.644531 194.601562 L 206.035156 193.53125 C 206.011719 193.5 205.996094 193.472656 205.976562 193.445312 C 205.785156 193.21875 205.464844 193.152344 205.195312 193.304688 C 204.894531 193.472656 204.800781 193.851562 204.964844 194.148438 Z M 181.714844 153.480469 L 200.378906 186.121094 C 200.542969 186.417969 200.921875 186.515625 201.214844 186.347656 C 201.515625 186.1875 201.613281 185.804688 201.445312 185.515625 L 182.78125 152.875 C 182.761719 152.839844 182.738281 152.8125 182.71875 152.789062 C 182.53125 152.558594 182.207031 152.492188 181.9375 152.644531 C 181.644531 152.8125 181.546875 153.191406 181.714844 153.480469 Z M 181.714844 153.480469 " fill-opacity="1" fill-rule="nonzero"/></g></g></g><g clip-path="url(#fb90396e44)"><g clip-path="url(#153a357b81)"><g clip-path="url(#c77dad7b38)"><path fill="#ffffff" d="M 240.957031 232.984375 L 246.042969 249.152344 C 246.441406 249.035156 246.835938 248.921875 247.234375 248.820312 L 242.140625 232.609375 C 242.113281 232.535156 242.074219 232.464844 242.03125 232.402344 C 241.875 232.214844 241.613281 232.128906 241.371094 232.210938 C 241.050781 232.316406 240.867188 232.65625 240.96875 232.980469 Z M 237.816406 222.988281 L 238.1875 224.164062 C 238.289062 224.488281 238.636719 224.667969 238.957031 224.566406 C 239.285156 224.460938 239.464844 224.117188 239.363281 223.792969 L 238.984375 222.617188 C 238.964844 222.539062 238.925781 222.46875 238.875 222.410156 C 238.71875 222.222656 238.460938 222.136719 238.214844 222.210938 C 237.890625 222.3125 237.710938 222.660156 237.8125 222.984375 Z M 223.769531 178.300781 L 235.042969 214.167969 C 235.148438 214.496094 235.496094 214.675781 235.816406 214.574219 C 236.136719 214.464844 236.324219 214.121094 236.214844 213.796875 L 224.9375 177.933594 C 224.910156 177.851562 224.878906 177.78125 224.828125 177.71875 C 224.671875 177.535156 224.410156 177.445312 224.164062 177.527344 C 223.847656 177.632812 223.664062 177.972656 223.769531 178.300781 Z M 220.625 168.304688 L 220.996094 169.480469 C 221.097656 169.804688 221.445312 169.984375 221.769531 169.882812 C 222.089844 169.78125 222.277344 169.433594 222.167969 169.113281 L 221.796875 167.933594 C 221.773438 167.855469 221.738281 167.785156 221.6875 167.726562 C 221.53125 167.539062 221.269531 167.453125 221.023438 167.527344 C 220.703125 167.636719 220.519531 167.976562 220.621094 168.300781 Z M 206.578125 123.617188 L 217.859375 159.488281 C 217.960938 159.8125 218.304688 159.992188 218.628906 159.890625 C 218.949219 159.789062 219.136719 159.4375 219.027344 159.121094 L 207.75 123.25 C 207.71875 123.167969 207.691406 123.097656 207.636719 123.035156 C 207.484375 122.851562 207.21875 122.761719 206.976562 122.84375 C 206.652344 122.945312 206.472656 123.289062 206.574219 123.613281 Z M 206.578125 123.617188 " fill-opacity="1" fill-rule="nonzero"/></g></g></g><g clip-path="url(#b50bea5370)"><g clip-path="url(#54404d8357)"><g clip-path="url(#420d77018a)"><path fill="#ffffff" d="M 254.503906 244.1875 L 254.710938 247.671875 C 255.121094 247.65625 255.53125 247.640625 255.941406 247.640625 L 255.734375 244.113281 C 255.726562 243.980469 255.675781 243.855469 255.59375 243.757812 C 255.476562 243.609375 255.289062 243.523438 255.085938 243.53125 C 254.75 243.554688 254.484375 243.847656 254.503906 244.1875 Z M 253.875 233.730469 L 253.953125 234.957031 C 253.964844 235.300781 254.261719 235.554688 254.601562 235.535156 C 254.945312 235.515625 255.195312 235.226562 255.179688 234.878906 L 255.101562 233.652344 C 255.097656 233.523438 255.042969 233.398438 254.964844 233.300781 C 254.84375 233.152344 254.65625 233.058594 254.453125 233.074219 C 254.109375 233.097656 253.855469 233.382812 253.875 233.730469 Z M 251.050781 186.96875 L 253.320312 224.496094 C 253.347656 224.835938 253.636719 225.09375 253.976562 225.078125 C 254.320312 225.054688 254.570312 224.765625 254.554688 224.421875 L 252.289062 186.890625 C 252.28125 186.757812 252.230469 186.636719 252.148438 186.535156 C 252.027344 186.386719 251.839844 186.296875 251.636719 186.308594 C 251.300781 186.332031 251.042969 186.625 251.058594 186.964844 Z M 250.425781 176.507812 L 250.5 177.738281 C 250.527344 178.078125 250.808594 178.335938 251.15625 178.320312 C 251.492188 178.292969 251.75 178.003906 251.734375 177.65625 L 251.65625 176.433594 C 251.648438 176.300781 251.597656 176.175781 251.515625 176.078125 C 251.398438 175.929688 251.207031 175.835938 251.007812 175.851562 C 250.664062 175.867188 250.410156 176.160156 250.429688 176.5 Z M 247.601562 129.75 L 249.859375 167.277344 C 249.886719 167.613281 250.179688 167.878906 250.515625 167.859375 C 250.859375 167.835938 251.117188 167.542969 251.097656 167.203125 L 248.835938 129.671875 C 248.820312 129.539062 248.777344 129.417969 248.695312 129.3125 C 248.574219 129.167969 248.382812 129.082031 248.179688 129.09375 C 247.839844 129.109375 247.585938 129.40625 247.601562 129.738281 Z M 247.601562 129.75 " fill-opacity="1" fill-rule="nonzero"/></g></g></g><g clip-path="url(#a054d4e7ac)"><g clip-path="url(#26b9475357)"><g clip-path="url(#6b92b6f376)"><path fill="#ffffff" d="M 266.609375 231.320312 L 263.449219 248.320312 C 263.847656 248.394531 264.25 248.480469 264.652344 248.578125 L 267.820312 231.550781 C 267.859375 231.363281 267.808594 231.179688 267.691406 231.039062 C 267.597656 230.929688 267.480469 230.851562 267.332031 230.824219 C 266.992188 230.761719 266.671875 230.988281 266.609375 231.316406 Z M 268.53125 221.019531 L 268.304688 222.226562 C 268.246094 222.5625 268.46875 222.886719 268.800781 222.945312 C 269.132812 223.007812 269.457031 222.789062 269.523438 222.453125 L 269.746094 221.246094 C 269.78125 221.058594 269.734375 220.875 269.617188 220.734375 C 269.53125 220.628906 269.398438 220.550781 269.253906 220.523438 C 268.921875 220.460938 268.597656 220.683594 268.53125 221.019531 Z M 277.101562 174.96875 L 270.21875 211.933594 C 270.15625 212.265625 270.378906 212.582031 270.710938 212.648438 C 271.046875 212.714844 271.371094 212.488281 271.433594 212.160156 L 278.320312 175.195312 C 278.351562 175.011719 278.300781 174.832031 278.1875 174.695312 C 278.09375 174.585938 277.972656 174.507812 277.828125 174.480469 C 277.496094 174.417969 277.167969 174.644531 277.105469 174.976562 Z M 279.019531 164.667969 L 278.792969 165.878906 C 278.734375 166.214844 278.957031 166.53125 279.285156 166.597656 C 279.621094 166.664062 279.949219 166.4375 280.011719 166.109375 L 280.234375 164.898438 C 280.273438 164.710938 280.21875 164.527344 280.101562 164.386719 C 280.019531 164.28125 279.890625 164.207031 279.738281 164.175781 C 279.40625 164.113281 279.085938 164.335938 279.019531 164.667969 Z M 287.59375 118.613281 L 280.714844 155.574219 C 280.648438 155.910156 280.871094 156.230469 281.199219 156.292969 C 281.539062 156.359375 281.859375 156.132812 281.925781 155.804688 L 288.808594 118.839844 C 288.847656 118.652344 288.792969 118.472656 288.675781 118.332031 C 288.582031 118.21875 288.464844 118.152344 288.3125 118.121094 C 287.980469 118.058594 287.660156 118.277344 287.59375 118.613281 Z M 287.59375 118.613281 " fill-opacity="1" fill-rule="nonzero"/></g></g></g><g clip-path="url(#67d63e232a)"><g clip-path="url(#7e43dcd476)"><g clip-path="url(#041ba8e741)"><path fill="#ffffff" d="M 287.550781 216.394531 L 271.929688 250.59375 C 271.84375 250.777344 271.859375 250.964844 271.941406 251.125 C 271.996094 251.25 272.101562 251.347656 272.234375 251.410156 C 272.355469 251.46875 272.488281 251.476562 272.613281 251.453125 C 272.796875 251.417969 272.964844 251.285156 273.054688 251.105469 L 288.675781 216.90625 C 288.78125 216.683594 288.734375 216.4375 288.589844 216.261719 C 288.53125 216.1875 288.457031 216.128906 288.367188 216.09375 C 288.066406 215.953125 287.695312 216.085938 287.554688 216.398438 Z M 291.902344 206.859375 L 291.390625 207.984375 C 291.246094 208.289062 291.382812 208.65625 291.695312 208.796875 C 292.007812 208.9375 292.375 208.804688 292.511719 208.492188 L 293.027344 207.375 C 293.128906 207.144531 293.085938 206.902344 292.941406 206.726562 C 292.882812 206.65625 292.808594 206.597656 292.71875 206.558594 C 292.410156 206.417969 292.046875 206.554688 291.902344 206.859375 Z M 311.359375 164.25 L 295.75 198.453125 C 295.609375 198.765625 295.738281 199.128906 296.054688 199.265625 C 296.367188 199.410156 296.726562 199.273438 296.871094 198.960938 L 312.492188 164.761719 C 312.597656 164.535156 312.550781 164.289062 312.410156 164.113281 C 312.351562 164.046875 312.28125 163.988281 312.1875 163.945312 C 311.882812 163.804688 311.515625 163.9375 311.375 164.25 Z M 311.359375 164.25 " fill-opacity="1" fill-rule="nonzero"/></g></g></g><g clip-path="url(#1f4982d174)"><g clip-path="url(#3d820d43f0)"><g clip-path="url(#a3e2af1c0d)"><path fill="#ffffff" d="M 290.042969 241.886719 L 279.09375 255.628906 C 279.417969 255.882812 279.734375 256.148438 280.046875 256.421875 L 291.011719 242.65625 C 291.191406 242.429688 291.183594 242.097656 291.007812 241.878906 C 290.980469 241.84375 290.945312 241.820312 290.914062 241.789062 C 290.644531 241.578125 290.265625 241.625 290.046875 241.886719 Z M 296.574219 233.695312 L 295.800781 234.65625 C 295.59375 234.925781 295.636719 235.308594 295.898438 235.527344 C 296.171875 235.738281 296.554688 235.695312 296.769531 235.429688 L 297.535156 234.46875 C 297.71875 234.234375 297.714844 233.910156 297.535156 233.691406 C 297.507812 233.65625 297.472656 233.625 297.4375 233.601562 C 297.171875 233.386719 296.785156 233.433594 296.574219 233.695312 Z M 325.765625 197.054688 L 302.332031 226.460938 C 302.117188 226.726562 302.167969 227.113281 302.429688 227.328125 C 302.695312 227.542969 303.082031 227.492188 303.296875 227.230469 L 326.722656 197.824219 C 326.90625 197.59375 326.898438 197.273438 326.71875 197.054688 C 326.691406 197.019531 326.664062 196.984375 326.628906 196.960938 C 326.363281 196.746094 325.980469 196.789062 325.765625 197.054688 Z M 332.289062 188.863281 L 331.519531 189.828125 C 331.304688 190.09375 331.351562 190.476562 331.613281 190.691406 C 331.882812 190.90625 332.269531 190.859375 332.476562 190.597656 L 333.25 189.636719 C 333.4375 189.40625 333.421875 189.078125 333.246094 188.859375 C 333.21875 188.824219 333.1875 188.789062 333.152344 188.765625 C 332.886719 188.550781 332.507812 188.601562 332.289062 188.863281 Z M 361.476562 152.230469 L 338.050781 181.628906 C 337.839844 181.902344 337.882812 182.285156 338.148438 182.5 C 338.414062 182.714844 338.804688 182.667969 339.011719 182.40625 L 362.445312 153 C 362.628906 152.769531 362.617188 152.441406 362.4375 152.222656 C 362.410156 152.1875 362.378906 152.15625 362.347656 152.132812 C 362.078125 151.917969 361.695312 151.96875 361.476562 152.230469 Z M 361.476562 152.230469 " fill-opacity="1" fill-rule="nonzero"/></g></g></g><g clip-path="url(#5d1bebd5e3)"><g clip-path="url(#5125227fa7)"><g clip-path="url(#2d637cfb15)"><path fill="#ffffff" d="M 291.003906 258.105469 C 291.199219 258.394531 291.601562 258.429688 291.871094 258.226562 L 292.847656 257.476562 C 293.117188 257.273438 293.171875 256.886719 292.960938 256.609375 L 292.949219 256.59375 C 292.738281 256.335938 292.363281 256.289062 292.097656 256.496094 L 291.117188 257.242188 C 290.851562 257.449219 290.792969 257.839844 291.003906 258.105469 Z M 299.328125 251.734375 C 299.523438 252.015625 299.914062 252.058594 300.1875 251.851562 L 330.035156 228.988281 C 330.300781 228.785156 330.359375 228.390625 330.152344 228.125 L 330.140625 228.101562 C 329.921875 227.847656 329.546875 227.808594 329.28125 228.007812 L 299.4375 250.867188 C 299.171875 251.070312 299.113281 251.464844 299.328125 251.734375 Z M 336.507812 223.253906 C 336.695312 223.539062 337.097656 223.578125 337.371094 223.371094 L 338.351562 222.621094 C 338.617188 222.417969 338.675781 222.023438 338.46875 221.753906 L 338.457031 221.734375 C 338.25 221.484375 337.863281 221.441406 337.597656 221.636719 L 336.621094 222.386719 C 336.355469 222.597656 336.300781 222.980469 336.507812 223.253906 Z M 344.828125 216.878906 C 345.023438 217.167969 345.425781 217.203125 345.695312 217 L 375.542969 194.136719 C 375.808594 193.925781 375.863281 193.539062 375.65625 193.265625 L 375.648438 193.25 C 375.433594 192.992188 375.0625 192.949219 374.792969 193.152344 L 344.945312 216.015625 C 344.675781 216.222656 344.621094 216.605469 344.828125 216.878906 Z M 344.828125 216.878906 " fill-opacity="1" fill-rule="nonzero"/></g></g></g><g clip-path="url(#06a7de921e)"><g clip-path="url(#b2b81d1dd8)"><g clip-path="url(#85162e9388)"><path fill="#ffffff" d="M 289.964844 270.425781 L 306.25 263.355469 C 306.5625 263.21875 306.707031 262.859375 306.574219 262.542969 C 306.546875 262.496094 306.523438 262.445312 306.492188 262.398438 C 306.316406 262.191406 306.023438 262.109375 305.765625 262.230469 L 289.496094 269.292969 C 289.660156 269.667969 289.820312 270.046875 289.964844 270.429688 Z M 313.925781 259.359375 C 314.0625 259.667969 314.425781 259.8125 314.738281 259.675781 L 315.863281 259.183594 C 316.179688 259.050781 316.328125 258.6875 316.191406 258.375 C 316.167969 258.324219 316.136719 258.273438 316.097656 258.230469 C 315.929688 258.027344 315.636719 257.949219 315.375 258.0625 L 314.246094 258.554688 C 313.9375 258.691406 313.789062 259.046875 313.925781 259.367188 Z M 323.539062 255.183594 C 323.671875 255.5 324.035156 255.648438 324.347656 255.511719 L 358.84375 240.542969 C 359.152344 240.40625 359.300781 240.050781 359.160156 239.738281 C 359.132812 239.683594 359.105469 239.636719 359.070312 239.59375 C 358.898438 239.390625 358.613281 239.304688 358.347656 239.417969 L 323.855469 254.382812 C 323.539062 254.515625 323.398438 254.878906 323.535156 255.1875 Z M 366.507812 236.542969 C 366.644531 236.855469 367.007812 237 367.320312 236.867188 L 368.449219 236.375 C 368.761719 236.238281 368.902344 235.875 368.773438 235.5625 C 368.746094 235.511719 368.71875 235.464844 368.6875 235.417969 C 368.515625 235.207031 368.222656 235.132812 367.964844 235.25 L 366.835938 235.738281 C 366.523438 235.875 366.375 236.238281 366.511719 236.550781 Z M 376.125 232.375 C 376.261719 232.6875 376.625 232.832031 376.933594 232.695312 L 411.433594 217.730469 C 411.742188 217.59375 411.886719 217.234375 411.75 216.921875 C 411.730469 216.871094 411.699219 216.824219 411.65625 216.777344 C 411.488281 216.574219 411.199219 216.488281 410.9375 216.601562 L 376.441406 231.566406 C 376.128906 231.703125 375.984375 232.058594 376.117188 232.378906 Z M 376.125 232.375 " fill-opacity="1" fill-rule="nonzero"/></g></g></g><g clip-path="url(#7509647aa7)"><g clip-path="url(#218b3ced4d)"><g clip-path="url(#ebad57e74f)"><path fill="#ffffff" d="M 292.144531 278.765625 L 296.140625 278.097656 C 296.484375 278.042969 296.707031 277.726562 296.652344 277.386719 C 296.636719 277.277344 296.582031 277.179688 296.519531 277.09375 C 296.382812 276.929688 296.167969 276.839844 295.941406 276.875 L 291.960938 277.535156 C 292.027344 277.941406 292.089844 278.347656 292.140625 278.757812 Z M 304.558594 276.078125 C 304.617188 276.410156 304.933594 276.640625 305.265625 276.582031 L 306.476562 276.378906 C 306.816406 276.324219 307.042969 276.011719 306.988281 275.667969 C 306.972656 275.558594 306.917969 275.460938 306.851562 275.378906 C 306.71875 275.210938 306.503906 275.125 306.277344 275.160156 L 305.066406 275.363281 C 304.734375 275.417969 304.503906 275.738281 304.558594 276.078125 Z M 314.898438 274.351562 C 314.953125 274.691406 315.265625 274.917969 315.597656 274.859375 L 352.6875 268.683594 C 353.027344 268.625 353.25 268.3125 353.195312 267.972656 C 353.179688 267.863281 353.128906 267.765625 353.0625 267.679688 C 352.925781 267.515625 352.710938 267.425781 352.488281 267.460938 L 315.398438 273.640625 C 315.066406 273.695312 314.835938 274.015625 314.894531 274.347656 Z M 361.101562 266.65625 C 361.15625 266.988281 361.476562 267.21875 361.808594 267.160156 L 363.019531 266.960938 C 363.359375 266.90625 363.582031 266.589844 363.527344 266.25 C 363.511719 266.140625 363.460938 266.042969 363.394531 265.957031 C 363.257812 265.792969 363.042969 265.703125 362.820312 265.738281 L 361.609375 265.941406 C 361.273438 266 361.046875 266.316406 361.101562 266.65625 Z M 371.441406 264.9375 C 371.496094 265.277344 371.816406 265.5 372.140625 265.445312 L 409.230469 259.265625 C 409.570312 259.210938 409.796875 258.898438 409.738281 258.558594 C 409.722656 258.449219 409.671875 258.351562 409.605469 258.265625 C 409.46875 258.101562 409.253906 258.011719 409.03125 258.046875 L 371.941406 264.226562 C 371.609375 264.28125 371.378906 264.601562 371.4375 264.933594 Z M 371.441406 264.9375 " fill-opacity="1" fill-rule="nonzero"/></g></g></g><g clip-path="url(#e02757495f)"><g clip-path="url(#a5b075321c)"><g clip-path="url(#851ce296b4)"><path fill="#ffffff" d="M 271.941406 251.125 C 272.167969 251.230469 272.390625 251.339844 272.613281 251.453125 C 272.496094 251.480469 272.355469 251.46875 272.234375 251.410156 C 272.101562 251.339844 271.992188 251.242188 271.941406 251.125 Z M 271.941406 251.125 " fill-opacity="1" fill-rule="nonzero"/></g></g></g><path fill="#ffffff" d="M 1280.503906 286.820312 C 1286.070312 287.210938 1292.03125 286.359375 1296.804688 283.308594 C 1298.949219 281.933594 1300.808594 280.128906 1302.152344 277.957031 C 1303.480469 275.808594 1304.417969 273.238281 1304.257812 270.683594 C 1304.078125 267.890625 1302.636719 264.851562 1299.59375 264.363281 C 1299.082031 264.28125 1298.429688 264.40625 1298.179688 264.9375 C 1296.453125 268.625 1297.183594 272.960938 1299.621094 276.160156 C 1302.328125 279.710938 1306.710938 281.386719 1311.105469 281.308594 C 1315.691406 281.226562 1319.945312 279.332031 1323.402344 276.382812 C 1325.097656 274.929688 1326.566406 273.230469 1327.855469 271.410156 C 1329.222656 269.480469 1330.421875 267.371094 1331.132812 265.109375 C 1331.917969 262.625 1331.957031 259.976562 1330.890625 257.578125 C 1329.929688 255.414062 1328.070312 253.675781 1325.761719 253.074219 C 1325.089844 252.898438 1324.429688 253.296875 1324.222656 253.945312 C 1323.316406 256.804688 1322.664062 260.796875 1325.226562 263.039062 C 1328.273438 265.710938 1332.554688 263.980469 1335.578125 262.207031 C 1341.484375 258.75 1346.339844 252.804688 1347.441406 245.921875 C 1348.519531 239.183594 1346.085938 231.871094 1340.660156 227.578125 C 1339.078125 226.324219 1337.222656 225.203125 1335.136719 225.226562 C 1333.289062 225.242188 1331.410156 226.3125 1330.746094 228.085938 C 1330.09375 229.828125 1331.03125 231.542969 1332.445312 232.550781 C 1333.832031 233.535156 1335.601562 233.867188 1337.269531 233.84375 C 1340.714844 233.789062 1344.234375 232.21875 1346.441406 229.546875 C 1348.988281 226.46875 1349.542969 222.40625 1349.121094 218.539062 C 1348.425781 212.136719 1345.457031 204.421875 1338.703125 202.316406 C 1336.949219 201.769531 1334.675781 202.089844 1334.035156 204.082031 C 1333.441406 205.929688 1334.765625 207.773438 1336.492188 208.328125 C 1338.324219 208.914062 1340.441406 208.226562 1341.984375 207.195312 C 1343.449219 206.214844 1344.652344 204.835938 1345.421875 203.246094 C 1347.230469 199.511719 1346.648438 195.304688 1345.042969 191.609375 C 1343.625 188.34375 1341.296875 185.441406 1338.339844 183.445312 C 1335.339844 181.421875 1331.679688 180.546875 1328.097656 181.03125 C 1324.789062 181.480469 1321.265625 183.167969 1319.980469 186.433594 C 1319.457031 187.753906 1319.328125 189.410156 1320.109375 190.660156 C 1321.164062 192.351562 1323.34375 192.710938 1325.125 192.070312 C 1328.386719 190.898438 1330.25 187.339844 1329.808594 183.96875 C 1329.324219 180.28125 1326.632812 177.324219 1323.625 175.355469 C 1320.957031 173.609375 1317.867188 172.640625 1314.71875 172.285156 C 1308.523438 171.585938 1301.824219 173.554688 1297.363281 177.996094 C 1296.015625 179.335938 1294.703125 180.984375 1294.597656 182.957031 C 1294.503906 184.71875 1295.773438 186.453125 1297.519531 186.832031 C 1299.679688 187.304688 1301.15625 185.546875 1301.515625 183.582031 C 1301.847656 181.769531 1301.476562 179.9375 1300.609375 178.320312 C 1298.761719 174.882812 1294.9375 173.144531 1291.261719 172.441406 C 1287.289062 171.679688 1283 171.71875 1279.195312 173.191406 C 1275.867188 174.480469 1272.84375 176.855469 1271.269531 180.121094 C 1270.527344 181.664062 1269.878906 183.585938 1270.300781 185.304688 C 1270.789062 187.324219 1272.941406 188.078125 1274.726562 187.238281 C 1276.582031 186.359375 1277.070312 184.105469 1276.390625 182.296875 C 1275.777344 180.664062 1274.507812 179.375 1272.992188 178.550781 C 1269.949219 176.890625 1266.191406 176.765625 1262.804688 176.941406 C 1259.074219 177.136719 1255.238281 177.9375 1252.058594 179.988281 C 1249.210938 181.820312 1247.007812 184.734375 1246.363281 188.101562 C 1245.757812 191.25 1246.511719 195.566406 1249.839844 196.914062 C 1251.777344 197.695312 1253.753906 196.527344 1253.828125 194.386719 C 1253.886719 192.644531 1252.886719 190.886719 1251.742188 189.640625 C 1249.398438 187.082031 1245.800781 185.90625 1242.410156 185.769531 C 1239.0625 185.628906 1235.65625 186.519531 1232.761719 188.191406 C 1229.914062 189.835938 1227.464844 192.3125 1226.121094 195.339844 C 1224.734375 198.460938 1224.414062 201.925781 1225.105469 205.265625 C 1225.765625 208.429688 1227.394531 211.398438 1229.746094 213.617188 C 1230.917969 214.722656 1232.691406 212.957031 1231.515625 211.847656 C 1227.570312 208.121094 1226.203125 202.175781 1228.089844 197.089844 C 1229.917969 192.152344 1235.0625 188.839844 1240.183594 188.335938 C 1242.839844 188.074219 1245.601562 188.453125 1247.9375 189.800781 C 1249.078125 190.457031 1250.105469 191.335938 1250.757812 192.496094 C 1251.027344 192.976562 1251.257812 193.523438 1251.320312 194.074219 C 1251.335938 194.21875 1251.363281 194.445312 1251.308594 194.585938 C 1251.289062 194.644531 1251.132812 194.746094 1251.273438 194.65625 C 1251.121094 194.691406 1251.09375 194.703125 1251.195312 194.679688 C 1251.039062 194.671875 1251.003906 194.671875 1251.09375 194.6875 C 1248.8125 194.171875 1248.433594 190.777344 1248.746094 188.925781 C 1249.183594 186.347656 1250.710938 183.96875 1252.847656 182.464844 C 1255.332031 180.714844 1258.335938 179.855469 1261.332031 179.554688 C 1264.179688 179.265625 1267.246094 179.210938 1270.015625 180.023438 C 1271.171875 180.359375 1272.292969 180.882812 1273.140625 181.75 C 1273.8125 182.441406 1274.761719 184.066406 1273.847656 184.851562 C 1273.617188 185.050781 1273.195312 185.191406 1272.957031 185.066406 C 1272.945312 185.058594 1272.824219 184.953125 1272.777344 184.871094 C 1272.625 184.597656 1272.660156 184.199219 1272.6875 183.894531 C 1272.796875 182.640625 1273.355469 181.375 1274.023438 180.308594 C 1277.453125 174.839844 1284.710938 173.722656 1290.597656 174.851562 C 1293.515625 175.410156 1296.671875 176.585938 1298.269531 179.265625 C 1298.917969 180.347656 1299.304688 181.648438 1299.105469 182.914062 C 1299.027344 183.402344 1298.871094 184.191406 1298.359375 184.414062 C 1298.289062 184.441406 1298.1875 184.421875 1298.042969 184.382812 C 1297.867188 184.332031 1297.703125 184.238281 1297.546875 184.101562 C 1296.539062 183.226562 1297.449219 181.699219 1298.160156 180.824219 C 1298.941406 179.863281 1299.882812 178.984375 1300.875 178.261719 C 1302.96875 176.734375 1305.34375 175.707031 1307.863281 175.140625 C 1312.765625 174.035156 1318.179688 174.746094 1322.429688 177.558594 C 1324.703125 179.0625 1326.878906 181.332031 1327.324219 184.121094 C 1327.671875 186.308594 1326.511719 189.066406 1324.183594 189.75 C 1323.632812 189.910156 1323.027344 189.96875 1322.527344 189.648438 C 1322.402344 189.570312 1322.335938 189.496094 1322.273438 189.394531 C 1322.265625 189.378906 1322.101562 189.035156 1322.1875 189.257812 C 1322.128906 189.105469 1322.085938 188.9375 1322.0625 188.777344 C 1322.101562 189.023438 1322.0625 188.605469 1322.0625 188.597656 C 1322.0625 188.460938 1322.066406 188.328125 1322.078125 188.195312 C 1322.058594 188.417969 1322.121094 187.972656 1322.121094 187.984375 C 1322.148438 187.84375 1322.1875 187.707031 1322.226562 187.574219 C 1322.375 187.09375 1322.601562 186.632812 1322.945312 186.175781 C 1323.613281 185.289062 1324.890625 184.546875 1325.992188 184.121094 C 1327.296875 183.621094 1328.679688 183.382812 1330.078125 183.386719 C 1335.976562 183.394531 1340.824219 187.800781 1342.96875 193.0625 C 1344.136719 195.933594 1344.628906 199.359375 1343.148438 202.214844 C 1342.542969 203.375 1341.6875 204.417969 1340.578125 205.128906 C 1339.613281 205.746094 1337.953125 206.492188 1336.855469 205.761719 C 1336.507812 205.53125 1336.417969 205.210938 1336.414062 204.824219 C 1336.417969 204.992188 1336.527344 204.671875 1336.441406 204.78125 C 1336.402344 204.839844 1336.34375 204.8125 1336.515625 204.691406 C 1336.695312 204.558594 1336.902344 204.550781 1337.113281 204.550781 C 1338.351562 204.542969 1339.707031 205.414062 1340.664062 206.128906 C 1342.710938 207.652344 1344.164062 209.941406 1345.085938 212.289062 C 1346.167969 215.03125 1346.773438 218.035156 1346.757812 220.984375 C 1346.742188 223.960938 1345.875 226.867188 1343.597656 228.890625 C 1341.59375 230.671875 1338.710938 231.621094 1336.039062 231.28125 C 1335.050781 231.152344 1333.804688 230.703125 1333.273438 229.925781 C 1333.046875 229.601562 1332.953125 229.269531 1333.097656 228.902344 C 1333.304688 228.378906 1333.847656 228.027344 1334.363281 227.855469 C 1335.765625 227.375 1337.265625 228.199219 1338.390625 228.976562 C 1339.519531 229.757812 1340.523438 230.738281 1341.402344 231.792969 C 1343.152344 233.910156 1344.300781 236.503906 1344.859375 239.183594 C 1346 244.636719 1344.28125 250.265625 1340.78125 254.527344 C 1338.972656 256.734375 1336.78125 258.601562 1334.320312 260.042969 C 1332.351562 261.199219 1328.777344 263.117188 1326.777344 261.058594 C 1326.085938 260.347656 1325.917969 259.316406 1325.933594 258.296875 C 1325.949219 257.042969 1326.257812 255.8125 1326.640625 254.613281 C 1326.125 254.902344 1325.613281 255.195312 1325.101562 255.484375 C 1326.675781 255.894531 1327.835938 257.019531 1328.554688 258.453125 C 1329.359375 260.058594 1329.375 261.914062 1328.953125 263.625 C 1328.453125 265.671875 1327.433594 267.539062 1326.285156 269.285156 C 1325.246094 270.867188 1324.050781 272.335938 1322.691406 273.652344 C 1319.992188 276.261719 1316.59375 278.1875 1312.835938 278.683594 C 1309.28125 279.152344 1305.304688 278.390625 1302.652344 275.832031 C 1300.148438 273.414062 1298.820312 269.453125 1300.34375 266.199219 C 1299.875 266.390625 1299.402344 266.582031 1298.933594 266.773438 C 1299.492188 266.863281 1299.730469 266.9375 1300.160156 267.210938 C 1300.261719 267.273438 1300.378906 267.367188 1300.558594 267.550781 C 1300.785156 267.777344 1300.789062 267.78125 1300.972656 268.074219 C 1301.449219 268.835938 1301.703125 269.796875 1301.757812 270.679688 C 1301.890625 272.808594 1301.136719 274.84375 1299.996094 276.691406 C 1297.667969 280.460938 1293.574219 282.707031 1289.273438 283.714844 C 1286.402344 284.390625 1283.441406 284.519531 1280.507812 284.316406 C 1279.835938 284.269531 1279.257812 284.925781 1279.257812 285.566406 C 1279.253906 286.285156 1279.828125 286.773438 1280.503906 286.820312 Z M 1280.503906 286.820312 " fill-opacity="1" fill-rule="nonzero"/><path fill="#ffffff" d="M 1229.894531 213.621094 C 1230.859375 214.570312 1232.285156 214.363281 1233.210938 213.476562 C 1234.15625 212.574219 1234.296875 211.199219 1233.65625 210.082031 C 1233.039062 209.015625 1231.882812 208.394531 1230.757812 208.011719 C 1229.652344 207.636719 1228.480469 207.445312 1227.316406 207.386719 C 1222.558594 207.160156 1218.070312 209.519531 1215.269531 213.300781 C 1213.921875 215.113281 1212.984375 217.273438 1212.527344 219.484375 C 1212.035156 221.867188 1211.953125 224.503906 1212.832031 226.808594 C 1213.703125 229.105469 1215.410156 230.835938 1217.523438 232.046875 C 1218.546875 232.632812 1219.648438 233.097656 1220.757812 233.492188 C 1222.066406 233.957031 1223.507812 234.277344 1224.886719 233.914062 C 1226.105469 233.589844 1227.078125 232.660156 1227.511719 231.488281 C 1227.941406 230.320312 1227.5625 228.96875 1226.582031 228.207031 C 1224.761719 226.800781 1222.199219 227.636719 1220.453125 228.746094 C 1216.703125 231.121094 1214.730469 235.597656 1214.640625 239.933594 C 1214.589844 242.515625 1215.132812 245.105469 1215.992188 247.53125 C 1216.820312 249.875 1217.882812 252.203125 1219.1875 254.320312 C 1220.394531 256.273438 1221.964844 258.136719 1224.066406 259.15625 C 1225.238281 259.726562 1226.488281 260.058594 1227.769531 260.269531 C 1229.179688 260.496094 1230.640625 260.734375 1231.980469 260.09375 C 1233.207031 259.503906 1234.019531 258.066406 1233.632812 256.71875 C 1233.273438 255.464844 1231.949219 254.660156 1230.683594 254.671875 C 1228.046875 254.699219 1226.339844 257.503906 1225.449219 259.644531 C 1224.558594 261.792969 1224.234375 264.132812 1223.925781 266.417969 C 1223.636719 268.597656 1223.453125 270.796875 1223.539062 272.996094 C 1223.71875 277.476562 1225.085938 282.027344 1228.589844 285.039062 C 1232.136719 288.082031 1236.863281 289.257812 1241.429688 289.566406 C 1243.957031 289.738281 1246.574219 289.589844 1249.007812 288.839844 C 1251.191406 288.164062 1253.179688 286.996094 1254.8125 285.398438 C 1256.398438 283.851562 1257.597656 281.960938 1258.386719 279.894531 C 1259.152344 277.890625 1259.5625 275.519531 1259.15625 273.386719 C 1258.914062 272.144531 1258.097656 271.054688 1256.871094 270.660156 C 1255.847656 270.332031 1254.679688 270.628906 1253.792969 271.183594 C 1251.789062 272.433594 1250.964844 274.800781 1251.246094 277.085938 C 1251.539062 279.449219 1252.71875 281.632812 1254.503906 283.210938 C 1256.339844 284.832031 1258.59375 285.847656 1260.925781 286.546875 C 1265.640625 287.960938 1271.246094 288.578125 1275.714844 286.058594 C 1277.601562 284.996094 1279.261719 283.367188 1280.242188 281.425781 C 1280.765625 280.390625 1281.089844 279.3125 1281.21875 278.160156 C 1281.355469 276.957031 1281.328125 275.296875 1280.121094 274.636719 C 1278.949219 273.992188 1277.613281 274.640625 1276.722656 275.46875 C 1276.292969 275.871094 1275.964844 276.378906 1275.644531 276.867188 C 1275.304688 277.386719 1274.996094 277.921875 1274.753906 278.488281 C 1274.222656 279.726562 1274.011719 281 1274.289062 282.328125 C 1274.523438 283.433594 1275.136719 284.507812 1275.957031 285.289062 C 1276.550781 285.859375 1277.257812 286.308594 1278.066406 286.503906 C 1278.773438 286.675781 1279.511719 286.746094 1280.234375 286.800781 C 1281.925781 286.929688 1283.632812 286.90625 1285.324219 286.804688 C 1286.789062 286.714844 1288.3125 286.605469 1289.734375 286.214844 C 1290.363281 286.039062 1290.816406 285.316406 1290.605469 284.675781 C 1290.398438 284.03125 1289.742188 283.613281 1289.066406 283.800781 C 1288.820312 283.871094 1288.570312 283.925781 1288.320312 283.972656 C 1288.199219 283.996094 1288.078125 284.015625 1287.960938 284.035156 C 1287.882812 284.050781 1287.804688 284.0625 1287.730469 284.074219 C 1287.675781 284.082031 1287.625 284.089844 1287.570312 284.097656 C 1287.433594 284.117188 1287.464844 284.113281 1287.660156 284.085938 C 1287.574219 284.042969 1287.25 284.136719 1287.148438 284.148438 C 1287 284.164062 1286.851562 284.179688 1286.699219 284.195312 C 1286.292969 284.234375 1285.882812 284.265625 1285.472656 284.292969 C 1283.949219 284.390625 1282.414062 284.417969 1280.886719 284.34375 C 1280.574219 284.328125 1280.257812 284.304688 1279.945312 284.277344 C 1279.789062 284.261719 1279.632812 284.246094 1279.480469 284.230469 C 1279.433594 284.226562 1279.375 284.222656 1279.332031 284.210938 C 1279.71875 284.3125 1279.414062 284.222656 1279.3125 284.207031 C 1279.082031 284.167969 1278.851562 284.125 1278.625 284.066406 C 1278.535156 284.042969 1278.449219 284.011719 1278.359375 283.984375 C 1278.136719 283.925781 1278.507812 283.964844 1278.496094 284.050781 C 1278.496094 284.050781 1278.269531 283.929688 1278.292969 283.941406 C 1278.191406 283.886719 1278.101562 283.820312 1278.003906 283.761719 C 1277.96875 283.738281 1277.816406 283.617188 1277.984375 283.75 C 1277.804688 283.605469 1277.640625 283.449219 1277.488281 283.28125 C 1277.472656 283.261719 1277.238281 282.96875 1277.394531 283.179688 C 1277.324219 283.085938 1277.261719 282.992188 1277.199219 282.894531 C 1277.078125 282.703125 1276.96875 282.5 1276.875 282.289062 C 1276.980469 282.535156 1276.84375 282.1875 1276.835938 282.160156 C 1276.800781 282.054688 1276.769531 281.941406 1276.742188 281.832031 C 1276.714844 281.722656 1276.691406 281.609375 1276.671875 281.496094 C 1276.726562 281.777344 1276.664062 281.417969 1276.660156 281.375 C 1276.648438 281.183594 1276.65625 280.996094 1276.660156 280.804688 C 1276.667969 280.46875 1276.609375 280.996094 1276.683594 280.621094 C 1276.71875 280.441406 1276.757812 280.265625 1276.808594 280.09375 C 1277.058594 279.257812 1277.644531 278.339844 1278.226562 277.511719 C 1278.058594 277.746094 1278.265625 277.472656 1278.296875 277.4375 C 1278.371094 277.355469 1278.449219 277.277344 1278.53125 277.203125 C 1278.5625 277.179688 1278.84375 276.976562 1278.625 277.121094 C 1278.714844 277.0625 1278.804688 277.003906 1278.898438 276.949219 C 1278.914062 276.941406 1279.207031 276.835938 1279.027344 276.882812 C 1278.84375 276.933594 1279.144531 276.859375 1279.15625 276.859375 C 1279.105469 276.863281 1279.054688 276.871094 1279 276.875 C 1279.144531 276.878906 1279.117188 276.867188 1278.925781 276.84375 C 1279.054688 276.878906 1279.03125 276.867188 1278.859375 276.800781 C 1278.722656 276.679688 1278.707031 276.667969 1278.804688 276.761719 C 1278.703125 276.621094 1278.714844 276.550781 1278.734375 276.742188 C 1278.710938 276.535156 1278.746094 276.910156 1278.746094 276.910156 C 1278.757812 277.101562 1278.765625 277.289062 1278.761719 277.480469 C 1278.757812 277.707031 1278.738281 277.933594 1278.714844 278.160156 C 1278.746094 277.871094 1278.703125 278.238281 1278.695312 278.273438 C 1278.675781 278.386719 1278.65625 278.496094 1278.628906 278.605469 C 1278.578125 278.824219 1278.519531 279.042969 1278.449219 279.257812 C 1278.417969 279.367188 1278.378906 279.472656 1278.339844 279.578125 C 1278.328125 279.605469 1278.191406 279.953125 1278.296875 279.699219 C 1278.117188 280.121094 1277.898438 280.523438 1277.65625 280.910156 C 1277.53125 281.105469 1277.398438 281.292969 1277.265625 281.480469 C 1277.046875 281.78125 1277.351562 281.375 1277.210938 281.546875 C 1277.148438 281.625 1277.089844 281.699219 1277.027344 281.773438 C 1276.699219 282.15625 1276.339844 282.515625 1275.960938 282.847656 C 1275.902344 282.898438 1275.84375 282.949219 1275.78125 283 C 1275.769531 283.011719 1275.46875 283.253906 1275.671875 283.097656 C 1275.484375 283.242188 1275.292969 283.375 1275.097656 283.503906 C 1274.710938 283.761719 1274.304688 283.992188 1273.882812 284.195312 C 1273.78125 284.246094 1273.675781 284.296875 1273.566406 284.34375 C 1273.824219 284.226562 1273.417969 284.402344 1273.414062 284.402344 C 1273.195312 284.488281 1272.976562 284.566406 1272.753906 284.636719 C 1272.179688 284.824219 1271.589844 284.96875 1270.996094 285.074219 C 1270.742188 285.117188 1270.621094 285.136719 1270.5 285.152344 C 1270.21875 285.183594 1269.941406 285.210938 1269.664062 285.230469 C 1269.101562 285.265625 1268.539062 285.273438 1267.976562 285.257812 C 1265.835938 285.195312 1263.839844 284.796875 1261.710938 284.171875 C 1261.207031 284.023438 1260.707031 283.859375 1260.214844 283.679688 C 1259.664062 283.476562 1259.453125 283.390625 1258.945312 283.144531 C 1258.515625 282.9375 1258.097656 282.714844 1257.6875 282.464844 C 1257.464844 282.332031 1257.25 282.191406 1257.039062 282.042969 C 1256.929688 281.96875 1256.828125 281.894531 1256.722656 281.816406 C 1256.871094 281.925781 1256.5625 281.691406 1256.566406 281.691406 C 1256.175781 281.371094 1255.808594 281.023438 1255.46875 280.648438 C 1255.386719 280.558594 1255.3125 280.460938 1255.230469 280.367188 C 1255.214844 280.347656 1255.085938 280.183594 1255.203125 280.332031 C 1255.027344 280.105469 1254.867188 279.867188 1254.71875 279.625 C 1254.589844 279.414062 1254.472656 279.203125 1254.363281 278.984375 C 1254.324219 278.910156 1254.289062 278.835938 1254.257812 278.761719 C 1254.25 278.753906 1254.097656 278.382812 1254.1875 278.613281 C 1254.003906 278.144531 1253.859375 277.660156 1253.765625 277.164062 C 1253.746094 277.066406 1253.730469 276.96875 1253.71875 276.867188 C 1253.753906 277.140625 1253.710938 276.75 1253.710938 276.726562 C 1253.695312 276.488281 1253.6875 276.25 1253.695312 276.015625 C 1253.703125 275.894531 1253.710938 275.777344 1253.71875 275.660156 C 1253.738281 275.410156 1253.726562 275.582031 1253.71875 275.636719 C 1253.761719 275.359375 1253.824219 275.089844 1253.90625 274.820312 C 1253.9375 274.710938 1253.976562 274.601562 1254.015625 274.496094 C 1253.910156 274.78125 1254.035156 274.472656 1254.058594 274.425781 C 1254.140625 274.273438 1254.234375 274.128906 1254.332031 273.988281 C 1254.171875 274.222656 1254.367188 273.949219 1254.398438 273.914062 C 1254.46875 273.835938 1254.539062 273.757812 1254.617188 273.6875 C 1254.691406 273.613281 1254.769531 273.546875 1254.847656 273.476562 C 1254.957031 273.386719 1254.957031 273.386719 1254.839844 273.480469 C 1254.898438 273.441406 1254.953125 273.402344 1255.011719 273.367188 C 1255.152344 273.273438 1255.300781 273.199219 1255.449219 273.121094 C 1255.179688 273.257812 1255.457031 273.125 1255.515625 273.105469 C 1255.605469 273.074219 1255.699219 273.058594 1255.792969 273.03125 C 1256.078125 272.949219 1255.53125 273.019531 1255.824219 273.027344 C 1255.914062 273.027344 1256.007812 273.03125 1256.097656 273.027344 C 1256.054688 273.03125 1255.816406 272.960938 1256.03125 273.023438 C 1256.132812 273.050781 1256.417969 273.207031 1256.15625 273.042969 C 1256.234375 273.09375 1256.316406 273.132812 1256.394531 273.1875 C 1256.136719 273.015625 1256.40625 273.21875 1256.449219 273.265625 C 1256.289062 273.097656 1256.511719 273.359375 1256.53125 273.390625 C 1256.570312 273.457031 1256.609375 273.53125 1256.636719 273.601562 C 1256.539062 273.367188 1256.667969 273.734375 1256.671875 273.75 C 1256.703125 273.867188 1256.726562 273.988281 1256.75 274.109375 C 1256.828125 274.476562 1256.753906 273.882812 1256.769531 274.261719 C 1256.773438 274.421875 1256.789062 274.585938 1256.789062 274.75 C 1256.796875 275.171875 1256.78125 275.597656 1256.746094 276.023438 C 1256.738281 276.136719 1256.722656 276.25 1256.710938 276.367188 C 1256.675781 276.746094 1256.757812 276.117188 1256.695312 276.492188 C 1256.65625 276.722656 1256.621094 276.949219 1256.570312 277.175781 C 1256.476562 277.628906 1256.359375 278.074219 1256.21875 278.515625 C 1256.160156 278.699219 1256.097656 278.882812 1256.03125 279.0625 C 1255.988281 279.171875 1255.945312 279.277344 1255.90625 279.386719 C 1255.851562 279.523438 1255.847656 279.53125 1255.898438 279.410156 C 1255.867188 279.480469 1255.835938 279.550781 1255.808594 279.621094 C 1255.441406 280.433594 1255.003906 281.210938 1254.492188 281.9375 C 1254.425781 282.03125 1254.355469 282.125 1254.289062 282.21875 C 1254.066406 282.527344 1254.4375 282.039062 1254.203125 282.332031 C 1254.058594 282.515625 1253.910156 282.691406 1253.757812 282.867188 C 1253.449219 283.214844 1253.128906 283.550781 1252.789062 283.863281 C 1252.617188 284.019531 1252.445312 284.175781 1252.269531 284.320312 C 1252.210938 284.371094 1252.148438 284.417969 1252.089844 284.46875 C 1251.796875 284.710938 1252.28125 284.332031 1251.976562 284.554688 C 1251.605469 284.832031 1251.222656 285.089844 1250.824219 285.324219 C 1249.921875 285.859375 1249.203125 286.164062 1248.203125 286.460938 C 1247.148438 286.777344 1246.140625 286.957031 1245.164062 287.042969 C 1244.0625 287.140625 1242.953125 287.144531 1241.847656 287.085938 C 1241.328125 287.058594 1240.8125 287.015625 1240.300781 286.964844 C 1240.054688 286.941406 1239.808594 286.910156 1239.566406 286.878906 C 1239.160156 286.828125 1239.808594 286.917969 1239.40625 286.859375 C 1239.246094 286.832031 1239.082031 286.808594 1238.917969 286.78125 C 1237.976562 286.628906 1237.042969 286.429688 1236.125 286.171875 C 1232.546875 285.160156 1229.425781 283.21875 1227.679688 279.90625 C 1227.566406 279.699219 1227.460938 279.484375 1227.363281 279.269531 C 1227.316406 279.160156 1227.265625 279.054688 1227.21875 278.945312 C 1227.320312 279.183594 1227.171875 278.820312 1227.164062 278.804688 C 1226.992188 278.359375 1226.84375 277.910156 1226.710938 277.453125 C 1226.589844 277.03125 1226.488281 276.605469 1226.398438 276.175781 C 1226.351562 275.9375 1226.308594 275.699219 1226.269531 275.460938 C 1226.25 275.339844 1226.230469 275.222656 1226.214844 275.101562 C 1226.167969 274.804688 1226.222656 275.226562 1226.195312 274.953125 C 1225.96875 272.976562 1225.976562 270.992188 1226.140625 269.011719 C 1226.175781 268.554688 1226.222656 268.101562 1226.273438 267.644531 C 1226.296875 267.417969 1226.324219 267.191406 1226.351562 266.96875 C 1226.363281 266.867188 1226.378906 266.765625 1226.390625 266.660156 C 1226.410156 266.507812 1226.414062 266.5 1226.394531 266.628906 C 1226.40625 266.546875 1226.417969 266.464844 1226.429688 266.386719 C 1226.570312 265.378906 1226.730469 264.371094 1226.941406 263.375 C 1227.144531 262.410156 1227.417969 261.46875 1227.761719 260.546875 C 1227.90625 260.160156 1227.664062 260.75 1227.832031 260.375 C 1227.882812 260.261719 1227.933594 260.148438 1227.992188 260.03125 C 1228.089844 259.824219 1228.199219 259.621094 1228.3125 259.417969 C 1228.425781 259.21875 1228.546875 259.019531 1228.671875 258.828125 C 1228.742188 258.722656 1228.816406 258.621094 1228.890625 258.515625 C 1228.980469 258.398438 1228.992188 258.382812 1228.925781 258.46875 C 1228.976562 258.402344 1229.03125 258.335938 1229.085938 258.273438 C 1229.222656 258.113281 1229.367188 257.957031 1229.519531 257.808594 C 1229.609375 257.722656 1229.703125 257.636719 1229.800781 257.554688 C 1229.632812 257.695312 1229.953125 257.449219 1229.957031 257.449219 C 1230.0625 257.382812 1230.167969 257.320312 1230.28125 257.265625 C 1230.074219 257.367188 1230.429688 257.21875 1230.445312 257.214844 C 1230.496094 257.199219 1230.863281 257.164062 1230.578125 257.175781 C 1230.683594 257.171875 1230.78125 257.171875 1230.886719 257.179688 C 1230.574219 257.15625 1230.898438 257.207031 1230.957031 257.21875 C 1231.238281 257.277344 1230.800781 257.089844 1231.035156 257.25 C 1231.089844 257.289062 1231.308594 257.484375 1231.109375 257.285156 C 1231.164062 257.339844 1231.316406 257.566406 1231.175781 257.328125 C 1231.207031 257.386719 1231.242188 257.4375 1231.269531 257.496094 C 1231.253906 257.460938 1231.234375 257.421875 1231.21875 257.378906 C 1231.25 257.515625 1231.253906 257.507812 1231.226562 257.355469 C 1231.226562 257.394531 1231.230469 257.433594 1231.230469 257.46875 C 1231.257812 257.324219 1231.253906 257.320312 1231.222656 257.46875 C 1231.175781 257.605469 1231.179688 257.609375 1231.226562 257.480469 C 1231.1875 257.546875 1231.148438 257.613281 1231.105469 257.675781 C 1231.253906 257.472656 1231.015625 257.753906 1230.992188 257.769531 C 1231.144531 257.628906 1230.96875 257.789062 1230.917969 257.820312 C 1230.867188 257.851562 1230.640625 257.957031 1230.851562 257.871094 C 1230.71875 257.925781 1230.578125 257.957031 1230.441406 257.988281 C 1230.105469 258.066406 1230.5625 258.015625 1230.214844 258.011719 C 1230.070312 258.011719 1229.929688 258.019531 1229.785156 258.011719 C 1229.644531 258.007812 1229.5 257.996094 1229.355469 257.980469 C 1229.367188 257.984375 1228.96875 257.9375 1229.121094 257.957031 C 1228.015625 257.816406 1226.902344 257.601562 1225.859375 257.21875 C 1224.230469 256.625 1222.832031 255.261719 1221.855469 253.84375 C 1221.289062 253.019531 1220.792969 252.144531 1220.335938 251.253906 C 1219.875 250.367188 1219.363281 249.289062 1219.023438 248.480469 C 1218.578125 247.417969 1218.1875 246.332031 1217.875 245.226562 C 1217.730469 244.722656 1217.605469 244.210938 1217.496094 243.699219 C 1217.4375 243.417969 1217.386719 243.140625 1217.339844 242.859375 C 1217.285156 242.539062 1217.277344 242.484375 1217.246094 242.207031 C 1217.121094 241.105469 1217.09375 239.984375 1217.195312 238.878906 C 1217.203125 238.804688 1217.269531 238.265625 1217.230469 238.53125 C 1217.265625 238.300781 1217.304688 238.078125 1217.347656 237.851562 C 1217.4375 237.398438 1217.550781 236.949219 1217.6875 236.511719 C 1217.753906 236.289062 1217.828125 236.070312 1217.90625 235.855469 C 1217.945312 235.746094 1217.984375 235.636719 1218.027344 235.53125 C 1218.039062 235.507812 1218.1875 235.160156 1218.078125 235.40625 C 1218.265625 234.984375 1218.46875 234.574219 1218.695312 234.175781 C 1218.902344 233.8125 1219.128906 233.460938 1219.375 233.121094 C 1219.386719 233.101562 1219.613281 232.800781 1219.449219 233.011719 C 1219.519531 232.921875 1219.589844 232.835938 1219.664062 232.75 C 1219.808594 232.574219 1219.957031 232.40625 1220.113281 232.242188 C 1220.421875 231.917969 1220.753906 231.617188 1221.101562 231.328125 C 1221.378906 231.097656 1220.902344 231.460938 1221.203125 231.253906 C 1221.261719 231.210938 1221.324219 231.164062 1221.382812 231.125 C 1221.597656 230.972656 1221.820312 230.832031 1222.046875 230.703125 C 1222.242188 230.589844 1222.4375 230.484375 1222.644531 230.390625 C 1222.710938 230.355469 1222.78125 230.324219 1222.847656 230.292969 C 1223.183594 230.140625 1222.621094 230.367188 1222.96875 230.246094 C 1223.164062 230.179688 1223.355469 230.113281 1223.558594 230.0625 C 1223.660156 230.039062 1223.761719 230.019531 1223.867188 229.996094 C 1224.109375 229.945312 1223.675781 229.992188 1224 229.988281 C 1224.191406 229.984375 1224.375 229.984375 1224.566406 229.988281 C 1224.257812 229.980469 1224.554688 229.988281 1224.628906 230.003906 C 1224.722656 230.027344 1224.8125 230.058594 1224.90625 230.085938 C 1224.628906 230.007812 1224.875 230.070312 1224.949219 230.113281 C 1224.976562 230.128906 1225.183594 230.304688 1225.054688 230.175781 C 1224.914062 230.035156 1225.125 230.261719 1225.132812 230.269531 C 1224.878906 230.019531 1225.242188 230.527344 1225.117188 230.222656 C 1225.15625 230.316406 1225.179688 230.414062 1225.199219 230.511719 C 1225.136719 230.199219 1225.175781 230.5 1225.175781 230.570312 C 1225.171875 230.28125 1225.179688 230.539062 1225.152344 230.628906 C 1225.132812 230.695312 1225.113281 230.761719 1225.089844 230.824219 C 1225.195312 230.546875 1225.0625 230.851562 1225.035156 230.894531 C 1225.007812 230.9375 1224.804688 231.191406 1224.984375 230.984375 C 1224.914062 231.066406 1224.835938 231.136719 1224.765625 231.214844 C 1224.65625 231.308594 1224.660156 231.3125 1224.773438 231.222656 C 1224.714844 231.265625 1224.65625 231.304688 1224.597656 231.34375 C 1224.535156 231.378906 1224.472656 231.410156 1224.410156 231.445312 C 1224.667969 231.304688 1224.332031 231.46875 1224.28125 231.484375 C 1223.960938 231.578125 1223.914062 231.574219 1223.632812 231.574219 C 1223.082031 231.578125 1222.699219 231.484375 1222.109375 231.308594 C 1221.640625 231.167969 1221.179688 231 1220.722656 230.820312 C 1220.605469 230.777344 1220.492188 230.730469 1220.378906 230.679688 C 1220.601562 230.773438 1220.226562 230.613281 1220.21875 230.613281 C 1219.957031 230.496094 1219.695312 230.371094 1219.433594 230.238281 C 1219.03125 230.035156 1218.632812 229.8125 1218.25 229.566406 C 1218.042969 229.4375 1217.839844 229.296875 1217.640625 229.15625 C 1217.664062 229.171875 1217.347656 228.929688 1217.476562 229.03125 C 1217.539062 229.078125 1217.515625 229.0625 1217.410156 228.976562 C 1217.347656 228.925781 1217.285156 228.875 1217.222656 228.824219 C 1216.855469 228.507812 1216.511719 228.164062 1216.203125 227.792969 C 1216.148438 227.730469 1216.097656 227.667969 1216.046875 227.605469 C 1216.195312 227.796875 1215.960938 227.476562 1215.957031 227.46875 C 1215.789062 227.226562 1215.636719 226.972656 1215.5 226.714844 C 1215.265625 226.273438 1215.171875 226.03125 1215.019531 225.5 C 1214.941406 225.238281 1214.878906 224.972656 1214.824219 224.707031 C 1214.773438 224.433594 1214.742188 224.222656 1214.730469 224.09375 C 1214.675781 223.542969 1214.652344 222.996094 1214.667969 222.445312 C 1214.675781 222.222656 1214.6875 222 1214.703125 221.777344 C 1214.710938 221.652344 1214.722656 221.53125 1214.734375 221.40625 C 1214.738281 221.363281 1214.796875 220.882812 1214.765625 221.125 C 1215.03125 219.136719 1215.621094 217.46875 1216.574219 215.851562 C 1216.804688 215.460938 1217.050781 215.082031 1217.316406 214.714844 C 1217.386719 214.613281 1217.460938 214.515625 1217.535156 214.417969 C 1217.390625 214.601562 1217.640625 214.285156 1217.644531 214.28125 C 1217.824219 214.0625 1218.015625 213.84375 1218.210938 213.632812 C 1218.519531 213.300781 1218.84375 212.984375 1219.183594 212.6875 C 1219.273438 212.605469 1219.367188 212.527344 1219.464844 212.449219 C 1219.4375 212.46875 1219.753906 212.214844 1219.628906 212.316406 C 1219.695312 212.257812 1220.035156 212.015625 1220.207031 211.898438 C 1220.589844 211.644531 1220.984375 211.410156 1221.386719 211.195312 C 1221.9375 210.90625 1222.214844 210.785156 1222.6875 210.613281 C 1223.117188 210.457031 1223.554688 210.320312 1224 210.210938 C 1224.242188 210.152344 1224.488281 210.097656 1224.730469 210.050781 C 1224.8125 210.035156 1224.894531 210.019531 1224.980469 210.007812 C 1225.058594 209.992188 1225.144531 209.980469 1225.226562 209.96875 C 1225.097656 209.984375 1225.109375 209.984375 1225.265625 209.964844 C 1226.25 209.855469 1227.253906 209.839844 1228.242188 209.972656 C 1227.980469 209.9375 1228.386719 210 1228.398438 210 C 1228.480469 210.015625 1228.5625 210.03125 1228.644531 210.046875 C 1228.890625 210.09375 1229.128906 210.148438 1229.371094 210.210938 C 1229.609375 210.277344 1229.851562 210.347656 1230.085938 210.425781 C 1230.175781 210.457031 1230.261719 210.488281 1230.351562 210.523438 C 1230.433594 210.554688 1230.421875 210.546875 1230.316406 210.503906 C 1230.382812 210.535156 1230.453125 210.566406 1230.523438 210.597656 C 1230.730469 210.699219 1230.917969 210.816406 1231.113281 210.941406 C 1231.394531 211.121094 1230.980469 210.785156 1231.207031 211.019531 C 1231.28125 211.097656 1231.359375 211.179688 1231.4375 211.253906 C 1231.289062 211.109375 1231.398438 211.195312 1231.433594 211.257812 C 1231.457031 211.296875 1231.605469 211.601562 1231.503906 211.335938 C 1231.542969 211.4375 1231.570312 211.542969 1231.589844 211.652344 C 1231.582031 211.601562 1231.574219 211.550781 1231.566406 211.5 C 1231.558594 211.640625 1231.566406 211.621094 1231.589844 211.4375 C 1231.5625 211.523438 1231.453125 211.742188 1231.597656 211.484375 C 1231.550781 211.566406 1231.507812 211.644531 1231.453125 211.71875 C 1231.488281 211.671875 1231.625 211.550781 1231.472656 211.679688 C 1231.394531 211.746094 1231.195312 211.835938 1231.445312 211.714844 C 1231.34375 211.761719 1231.144531 211.8125 1231.429688 211.742188 C 1231.335938 211.765625 1231.089844 211.792969 1231.4375 211.761719 C 1231.167969 211.785156 1231.714844 211.847656 1231.457031 211.765625 C 1231.507812 211.78125 1231.832031 212.027344 1231.660156 211.855469 C 1231.195312 211.394531 1230.351562 211.355469 1229.890625 211.855469 C 1229.441406 212.351562 1229.398438 213.132812 1229.894531 213.621094 Z M 1229.894531 213.621094 " fill-opacity="1" fill-rule="nonzero"/><path fill="#ffffff" d="M 1348.769531 208.175781 C 1349.246094 208.976562 1349.664062 209.8125 1350.03125 210.671875 C 1349.988281 210.570312 1349.945312 210.472656 1349.90625 210.371094 C 1350.691406 212.242188 1351.203125 214.214844 1351.480469 216.222656 C 1351.464844 216.113281 1351.449219 216.003906 1351.433594 215.890625 C 1351.777344 218.4375 1351.738281 221.019531 1351.398438 223.566406 C 1351.414062 223.453125 1351.429688 223.34375 1351.445312 223.234375 C 1351.203125 225.015625 1350.816406 226.78125 1350.289062 228.503906 C 1350.101562 229.128906 1350.515625 229.894531 1351.164062 230.042969 C 1351.839844 230.195312 1352.5 229.839844 1352.703125 229.167969 C 1353.570312 226.304688 1354.082031 223.316406 1354.164062 220.324219 C 1354.246094 217.371094 1353.894531 214.363281 1352.996094 211.542969 C 1352.480469 209.933594 1351.792969 208.367188 1350.929688 206.914062 C 1350.597656 206.347656 1349.789062 206.097656 1349.21875 206.464844 C 1348.652344 206.828125 1348.414062 207.574219 1348.769531 208.175781 Z M 1348.769531 208.175781 " fill-opacity="1" fill-rule="nonzero"/><path fill="#ffffff" d="M 1354.839844 211.542969 C 1355.421875 213.140625 1355.828125 214.796875 1356.054688 216.480469 C 1356.042969 216.371094 1356.027344 216.257812 1356.011719 216.148438 C 1356.289062 218.246094 1356.289062 220.378906 1356.007812 222.476562 C 1356.023438 222.367188 1356.039062 222.257812 1356.054688 222.144531 C 1355.925781 223.089844 1355.738281 224.027344 1355.496094 224.949219 C 1355.328125 225.582031 1355.707031 226.335938 1356.367188 226.488281 C 1357.023438 226.636719 1357.730469 226.292969 1357.90625 225.613281 C 1358.90625 221.816406 1358.976562 217.796875 1358.144531 213.960938 C 1357.917969 212.914062 1357.621094 211.882812 1357.253906 210.878906 C 1357.140625 210.566406 1356.972656 210.304688 1356.679688 210.132812 C 1356.410156 209.972656 1356.015625 209.90625 1355.714844 210.003906 C 1355.113281 210.199219 1354.601562 210.886719 1354.839844 211.542969 Z M 1354.839844 211.542969 " fill-opacity="1" fill-rule="nonzero"/><path fill="#ffffff" d="M 1306.730469 285.695312 C 1311.015625 286.542969 1315.511719 286.285156 1319.652344 284.875 C 1323.441406 283.585938 1326.894531 281.375 1329.652344 278.472656 C 1331.160156 276.882812 1332.472656 275.089844 1333.511719 273.164062 C 1333.820312 272.585938 1333.675781 271.773438 1333.0625 271.449219 C 1332.480469 271.144531 1331.683594 271.285156 1331.351562 271.898438 C 1330.746094 273.023438 1330.046875 274.097656 1329.269531 275.109375 C 1329.332031 275.023438 1329.398438 274.9375 1329.464844 274.855469 C 1328.222656 276.460938 1326.78125 277.902344 1325.179688 279.144531 C 1325.265625 279.082031 1325.351562 279.015625 1325.433594 278.949219 C 1323.832031 280.1875 1322.082031 281.21875 1320.21875 282.007812 C 1320.316406 281.964844 1320.417969 281.921875 1320.515625 281.878906 C 1318.582031 282.691406 1316.550781 283.238281 1314.472656 283.519531 C 1314.585938 283.503906 1314.695312 283.492188 1314.804688 283.476562 C 1312.707031 283.753906 1310.578125 283.753906 1308.476562 283.472656 C 1308.589844 283.488281 1308.699219 283.503906 1308.808594 283.519531 C 1308.335938 283.453125 1307.867188 283.375 1307.394531 283.28125 C 1307.0625 283.214844 1306.730469 283.230469 1306.433594 283.40625 C 1306.171875 283.558594 1305.925781 283.855469 1305.859375 284.15625 C 1305.714844 284.777344 1306.046875 285.558594 1306.730469 285.695312 Z M 1306.730469 285.695312 " fill-opacity="1" fill-rule="nonzero"/><g clip-path="url(#8a39ab1381)"><path fill="#ffffff" d="M 1221.949219 285.46875 C 1222.730469 287.246094 1224.019531 288.792969 1225.480469 290.050781 C 1226.976562 291.339844 1228.660156 292.414062 1230.429688 293.289062 C 1234.078125 295.097656 1238.113281 296.101562 1242.1875 296.167969 C 1244.460938 296.207031 1246.753906 295.9375 1248.957031 295.375 C 1249.589844 295.210938 1250.035156 294.46875 1249.832031 293.835938 C 1249.617188 293.179688 1248.972656 292.789062 1248.292969 292.960938 C 1247.398438 293.191406 1246.488281 293.367188 1245.574219 293.492188 C 1245.6875 293.476562 1245.796875 293.464844 1245.90625 293.449219 C 1243.671875 293.75 1241.402344 293.738281 1239.167969 293.441406 C 1239.277344 293.457031 1239.390625 293.46875 1239.5 293.484375 C 1237.195312 293.171875 1234.941406 292.554688 1232.800781 291.652344 C 1232.898438 291.691406 1233 291.734375 1233.097656 291.777344 C 1231.191406 290.964844 1229.359375 289.941406 1227.71875 288.675781 C 1227.800781 288.738281 1227.886719 288.804688 1227.96875 288.871094 C 1226.964844 288.089844 1226.035156 287.210938 1225.257812 286.203125 C 1225.320312 286.289062 1225.386719 286.375 1225.453125 286.457031 C 1224.917969 285.761719 1224.464844 285.011719 1224.109375 284.207031 C 1223.992188 283.9375 1223.632812 283.707031 1223.363281 283.632812 C 1223.0625 283.550781 1222.664062 283.585938 1222.398438 283.757812 C 1222.132812 283.929688 1221.894531 284.1875 1221.824219 284.507812 C 1221.746094 284.851562 1221.808594 285.144531 1221.949219 285.46875 Z M 1221.949219 285.46875 " fill-opacity="1" fill-rule="nonzero"/></g><g clip-path="url(#e0499da56f)"><path fill="#ffffff" d="M 1215.558594 205.851562 C 1213.320312 206.804688 1211.511719 208.660156 1210.328125 210.757812 C 1208.964844 213.171875 1208.410156 215.953125 1208.390625 218.707031 C 1208.375 220.378906 1208.566406 222.050781 1208.835938 223.699219 C 1208.882812 223.992188 1209.167969 224.304688 1209.410156 224.449219 C 1209.679688 224.605469 1210.074219 224.671875 1210.375 224.574219 C 1210.675781 224.476562 1210.96875 224.289062 1211.121094 224 C 1211.289062 223.683594 1211.304688 223.386719 1211.25 223.035156 C 1211.191406 222.679688 1211.136719 222.324219 1211.089844 221.96875 C 1211.105469 222.078125 1211.117188 222.191406 1211.132812 222.300781 C 1210.871094 220.328125 1210.792969 218.328125 1211.050781 216.355469 C 1211.035156 216.464844 1211.023438 216.574219 1211.007812 216.6875 C 1211.179688 215.421875 1211.492188 214.179688 1211.988281 213 C 1211.945312 213.101562 1211.902344 213.199219 1211.859375 213.300781 C 1212.269531 212.335938 1212.792969 211.425781 1213.433594 210.597656 C 1213.371094 210.679688 1213.304688 210.765625 1213.238281 210.847656 C 1213.78125 210.152344 1214.402344 209.519531 1215.097656 208.980469 C 1215.015625 209.042969 1214.929688 209.109375 1214.847656 209.175781 C 1215.453125 208.707031 1216.113281 208.316406 1216.820312 208.015625 C 1217.089844 207.902344 1217.320312 207.535156 1217.394531 207.269531 C 1217.476562 206.96875 1217.4375 206.570312 1217.269531 206.304688 C 1217.097656 206.039062 1216.839844 205.800781 1216.519531 205.730469 C 1216.410156 205.714844 1216.296875 205.699219 1216.1875 205.683594 C 1215.960938 205.683594 1215.75 205.742188 1215.558594 205.851562 Z M 1215.558594 205.851562 " fill-opacity="1" fill-rule="nonzero"/></g><path fill="#ffffff" d="M 1267.117188 171.738281 C 1264.019531 171.222656 1260.847656 171.390625 1257.820312 172.242188 C 1254.800781 173.085938 1252 174.574219 1249.585938 176.570312 C 1248.234375 177.6875 1247.054688 178.988281 1246.027344 180.410156 C 1245.847656 180.660156 1245.824219 181.09375 1245.902344 181.375 C 1245.980469 181.664062 1246.207031 181.980469 1246.476562 182.125 C 1246.765625 182.277344 1247.117188 182.355469 1247.441406 182.25 C 1247.765625 182.144531 1247.988281 181.953125 1248.1875 181.675781 C 1248.3125 181.503906 1248.4375 181.335938 1248.566406 181.167969 C 1248.5 181.253906 1248.433594 181.339844 1248.371094 181.421875 C 1249.390625 180.105469 1250.578125 178.929688 1251.894531 177.910156 C 1251.808594 177.976562 1251.722656 178.042969 1251.640625 178.105469 C 1253.070312 177.007812 1254.632812 176.101562 1256.292969 175.398438 C 1256.191406 175.441406 1256.09375 175.484375 1255.992188 175.527344 C 1257.6875 174.8125 1259.46875 174.324219 1261.292969 174.070312 C 1261.183594 174.085938 1261.070312 174.101562 1260.960938 174.117188 C 1262.6875 173.886719 1264.4375 173.875 1266.164062 174.097656 C 1266.050781 174.085938 1265.941406 174.070312 1265.832031 174.054688 C 1266.039062 174.082031 1266.246094 174.113281 1266.457031 174.148438 C 1266.796875 174.207031 1267.109375 174.203125 1267.417969 174.023438 C 1267.679688 173.871094 1267.925781 173.574219 1267.992188 173.273438 C 1268.066406 172.953125 1268.050781 172.59375 1267.867188 172.308594 C 1267.703125 172.054688 1267.433594 171.792969 1267.117188 171.738281 Z M 1267.117188 171.738281 " fill-opacity="1" fill-rule="nonzero"/><g clip-path="url(#743d4d0477)"><path fill="#ffffff" d="M 1260.523438 167.453125 C 1256.617188 167.488281 1252.722656 168.582031 1249.371094 170.582031 C 1248.394531 171.167969 1247.464844 171.839844 1246.585938 172.566406 C 1246.351562 172.757812 1246.21875 173.160156 1246.21875 173.449219 C 1246.21875 173.757812 1246.355469 174.121094 1246.585938 174.332031 C 1246.824219 174.550781 1247.136719 174.714844 1247.46875 174.699219 C 1247.820312 174.683594 1248.085938 174.554688 1248.351562 174.332031 C 1248.519531 174.195312 1248.6875 174.0625 1248.859375 173.929688 C 1248.773438 173.996094 1248.6875 174.0625 1248.605469 174.125 C 1250.023438 173.03125 1251.578125 172.128906 1253.230469 171.429688 C 1253.128906 171.472656 1253.03125 171.515625 1252.929688 171.558594 C 1254.640625 170.839844 1256.4375 170.34375 1258.277344 170.09375 C 1258.164062 170.109375 1258.054688 170.125 1257.945312 170.140625 C 1258.796875 170.023438 1259.660156 169.964844 1260.523438 169.957031 C 1261.175781 169.949219 1261.804688 169.382812 1261.773438 168.707031 C 1261.742188 168.03125 1261.222656 167.449219 1260.523438 167.453125 Z M 1260.523438 167.453125 " fill-opacity="1" fill-rule="nonzero"/></g><g clip-path="url(#66ade4a141)"><path fill="#ffffff" d="M 1307.152344 170.355469 C 1307.371094 170.320312 1307.589844 170.289062 1307.8125 170.261719 C 1307.703125 170.277344 1307.589844 170.289062 1307.480469 170.304688 C 1310.199219 169.945312 1312.957031 169.953125 1315.675781 170.320312 C 1315.566406 170.304688 1315.453125 170.292969 1315.34375 170.277344 C 1318.058594 170.648438 1320.722656 171.371094 1323.25 172.433594 C 1323.152344 172.390625 1323.050781 172.347656 1322.953125 172.308594 C 1324.019531 172.757812 1325.0625 173.269531 1326.070312 173.835938 C 1326.640625 174.160156 1327.460938 173.992188 1327.78125 173.390625 C 1328.09375 172.796875 1327.941406 172.019531 1327.332031 171.675781 C 1324.90625 170.308594 1322.285156 169.253906 1319.582031 168.558594 C 1316.890625 167.871094 1314.089844 167.519531 1311.3125 167.535156 C 1309.695312 167.546875 1308.085938 167.695312 1306.488281 167.941406 C 1306.199219 167.988281 1305.878906 168.277344 1305.738281 168.515625 C 1305.582031 168.785156 1305.515625 169.179688 1305.613281 169.480469 C 1305.710938 169.785156 1305.898438 170.074219 1306.1875 170.230469 C 1306.503906 170.398438 1306.800781 170.410156 1307.152344 170.355469 Z M 1307.152344 170.355469 " fill-opacity="1" fill-rule="nonzero"/></g></svg>