<svg xmlns="http://www.w3.org/2000/svg" width="1920" viewBox="0 0 1440 810" height="1080" version="1.0"><defs><clipPath id="a"><path d="M709.324 106H750v13h-40.676zm0 0"/></clipPath><clipPath id="b"><path d="M834 187h50.824v18.375H834zm0 0"/></clipPath><clipPath id="c"><path d="M126 306h104v85H126zm0 0"/></clipPath><clipPath id="d"><path d="M33.656 214.563l294.235-155.93 100.793 190.195-294.239 155.926zm0 0"/></clipPath><clipPath id="e"><path d="M33.656 214.563l294.235-155.93 100.793 190.195-294.239 155.926zm0 0"/></clipPath><clipPath id="f"><path d="M134 299h88v43h-88zm0 0"/></clipPath><clipPath id="g"><path d="M33.656 214.563l294.235-155.93 100.793 190.195-294.239 155.926zm0 0"/></clipPath><clipPath id="h"><path d="M33.656 214.563l294.235-155.93 100.793 190.195-294.239 155.926zm0 0"/></clipPath><clipPath id="i"><path d="M92 289h130v29H92zm0 0"/></clipPath><clipPath id="j"><path d="M33.656 214.563l294.235-155.93 100.793 190.195-294.239 155.926zm0 0"/></clipPath><clipPath id="k"><path d="M33.656 214.563l294.235-155.93 100.793 190.195-294.239 155.926zm0 0"/></clipPath><clipPath id="l"><path d="M137 277h84v6h-84zm0 0"/></clipPath><clipPath id="m"><path d="M33.656 214.563l294.235-155.93 100.793 190.195-294.239 155.926zm0 0"/></clipPath><clipPath id="n"><path d="M33.656 214.563l294.235-155.93 100.793 190.195-294.239 155.926zm0 0"/></clipPath><clipPath id="o"><path d="M95 234h128v40H95zm0 0"/></clipPath><clipPath id="p"><path d="M33.656 214.563l294.235-155.93 100.793 190.195-294.239 155.926zm0 0"/></clipPath><clipPath id="q"><path d="M33.656 214.563l294.235-155.93 100.793 190.195-294.239 155.926zm0 0"/></clipPath><clipPath id="r"><path d="M128 206h93v56h-93zm0 0"/></clipPath><clipPath id="s"><path d="M33.656 214.563l294.235-155.93 100.793 190.195-294.239 155.926zm0 0"/></clipPath><clipPath id="t"><path d="M33.656 214.563l294.235-155.93 100.793 190.195-294.239 155.926zm0 0"/></clipPath><clipPath id="u"><path d="M137 165h95v94h-95zm0 0"/></clipPath><clipPath id="v"><path d="M33.656 214.563l294.235-155.93 100.793 190.195-294.239 155.926zm0 0"/></clipPath><clipPath id="w"><path d="M33.656 214.563l294.235-155.93 100.793 190.195-294.239 155.926zm0 0"/></clipPath><clipPath id="x"><path d="M181 152h59v101h-59zm0 0"/></clipPath><clipPath id="y"><path d="M33.656 214.563l294.235-155.93 100.793 190.195-294.239 155.926zm0 0"/></clipPath><clipPath id="z"><path d="M33.656 214.563l294.235-155.93 100.793 190.195-294.239 155.926zm0 0"/></clipPath><clipPath id="A"><path d="M206 122h42v128h-42zm0 0"/></clipPath><clipPath id="B"><path d="M33.656 214.563l294.235-155.93 100.793 190.195-294.239 155.926zm0 0"/></clipPath><clipPath id="C"><path d="M33.656 214.563l294.235-155.93 100.793 190.195-294.239 155.926zm0 0"/></clipPath><clipPath id="D"><path d="M247 129h9v119h-9zm0 0"/></clipPath><clipPath id="E"><path d="M33.656 214.563l294.235-155.93 100.793 190.195-294.239 155.926zm0 0"/></clipPath><clipPath id="F"><path d="M33.656 214.563l294.235-155.93 100.793 190.195-294.239 155.926zm0 0"/></clipPath><clipPath id="G"><path d="M263 118h26v131h-26zm0 0"/></clipPath><clipPath id="H"><path d="M33.656 214.563l294.235-155.93 100.793 190.195-294.239 155.926zm0 0"/></clipPath><clipPath id="I"><path d="M33.656 214.563l294.235-155.93 100.793 190.195-294.239 155.926zm0 0"/></clipPath><clipPath id="J"><path d="M271 163h42v89h-42zm0 0"/></clipPath><clipPath id="K"><path d="M33.656 214.563l294.235-155.93 100.793 190.195-294.239 155.926zm0 0"/></clipPath><clipPath id="L"><path d="M33.656 214.563l294.235-155.93 100.793 190.195-294.239 155.926zm0 0"/></clipPath><clipPath id="M"><path d="M279 152h84v105h-84zm0 0"/></clipPath><clipPath id="N"><path d="M33.656 214.563l294.235-155.93 100.793 190.195-294.239 155.926zm0 0"/></clipPath><clipPath id="O"><path d="M33.656 214.563l294.235-155.93 100.793 190.195-294.239 155.926zm0 0"/></clipPath><clipPath id="P"><path d="M290 193h86v66h-86zm0 0"/></clipPath><clipPath id="Q"><path d="M33.656 214.563l294.235-155.93 100.793 190.195-294.239 155.926zm0 0"/></clipPath><clipPath id="R"><path d="M33.656 214.563l294.235-155.93 100.793 190.195-294.239 155.926zm0 0"/></clipPath><clipPath id="S"><path d="M289 216h123v55H289zm0 0"/></clipPath><clipPath id="T"><path d="M33.656 214.563l294.235-155.93 100.793 190.195-294.239 155.926zm0 0"/></clipPath><clipPath id="U"><path d="M33.656 214.563l294.235-155.93 100.793 190.195-294.239 155.926zm0 0"/></clipPath><clipPath id="V"><path d="M291 258h119v21H291zm0 0"/></clipPath><clipPath id="W"><path d="M33.656 214.563l294.235-155.93 100.793 190.195-294.239 155.926zm0 0"/></clipPath><clipPath id="X"><path d="M33.656 214.563l294.235-155.93 100.793 190.195-294.239 155.926zm0 0"/></clipPath><clipPath id="Y"><path d="M271 251h2v1h-2zm0 0"/></clipPath><clipPath id="Z"><path d="M33.656 214.563l294.235-155.93 100.793 190.195-294.239 155.926zm0 0"/></clipPath><clipPath id="aa"><path d="M33.656 214.563l294.235-155.93 100.793 190.195-294.239 155.926zm0 0"/></clipPath><clipPath id="ab"><path d="M1221 283h29v13.445h-29zm0 0"/></clipPath><clipPath id="ac"><path d="M1208.367 205H1218v20h-9.633zm0 0"/></clipPath><clipPath id="ad"><path d="M1246 167.445h16V175h-16zm0 0"/></clipPath><clipPath id="ae"><path d="M1305 167.445h23V174h-23zm0 0"/></clipPath></defs><path fill="#fff" d="M782.734 92.352a2.814 2.814 0 015.016 2.55l-2.492 3.024a1.96 1.96 0 11-3.496-1.777zm0 0" fill-rule="evenodd"/><path fill="#fff" d="M785.527 96.324a2.816 2.816 0 01-1.71-5.363s9.359-2.54 19.753.793c5.348 1.719 10.992 4.922 15.684 10.953a.691.691 0 01-1.043.906c-4.938-5.043-10.426-7.449-15.52-8.465-9.316-1.859-17.164 1.176-17.164 1.176zm0 0" fill-rule="evenodd"/><path fill="#fff" d="M751.965 97.297a1.292 1.292 0 01-1.82-.137 1.292 1.292 0 01.136-1.82s6.715-6.242 16.676-7.871c5.453-.895 11.824-.352 18.637 3.164a2.817 2.817 0 011.047 3.84 2.818 2.818 0 01-3.84 1.047c-5.442-3.434-10.735-4.329-15.356-3.977-9.015.687-15.48 5.754-15.48 5.754zM830.07 69.11a2.416 2.416 0 114.309 2.191l-2.14 2.597a1.685 1.685 0 01-3.005-1.527zm0 0" fill-rule="evenodd"/><path fill="#fff" d="M832.469 72.52a2.414 2.414 0 01-3.035-1.57A2.416 2.416 0 01831 67.913s8.04-2.18 16.965.684c4.597 1.472 9.441 4.226 13.469 9.406a.593.593 0 01-.89.781c-4.243-4.336-8.958-6.402-13.333-7.273-8-1.598-14.742 1.008-14.742 1.008zm0 0" fill-rule="evenodd"/><path fill="#fff" d="M803.645 73.355a1.108 1.108 0 11-1.446-1.68s5.766-5.359 14.32-6.76c4.684-.767 10.157-.302 16.008 2.718a2.42 2.42 0 01.899 3.297 2.418 2.418 0 01-3.297.898c-4.676-2.945-9.219-3.715-13.192-3.414-7.738.59-13.292 4.941-13.292 4.941zm-33.149-6.945a1.682 1.682 0 113 1.528l-1.492 1.808c-.293.574-1 .805-1.578.512-.574-.293-.805-1-.512-1.578zm0 0" fill-rule="evenodd"/><path fill="#fff" d="M772.168 68.785a1.683 1.683 0 11-1.023-3.207s5.597-1.52 11.816.477c3.203 1.023 6.578 2.941 9.383 6.55a.41.41 0 01-.04.582.41.41 0 01-.581-.039c-2.957-3.02-6.239-4.457-9.29-5.066-5.57-1.11-10.265.703-10.265.703zm0 0" fill-rule="evenodd"/><path fill="#fff" d="M752.086 69.367a.773.773 0 01-1.09-.082.769.769 0 01.082-1.086s4.016-3.734 9.977-4.71c3.261-.536 7.074-.212 11.152 1.89a1.686 1.686 0 01-1.672 2.926c-3.258-2.055-6.422-2.59-9.187-2.38-5.395.41-9.262 3.442-9.262 3.442zM804.34 47.55a1.278 1.278 0 112.281 1.156l-1.133 1.376a.894.894 0 01-1.199.39.894.894 0 01-.39-1.199zm0 0" fill-rule="evenodd"/><path fill="#fff" d="M805.61 49.355a1.282 1.282 0 01-.777-2.441c-.001 0 4.257-1.152 8.98.363 2.433.782 5 2.239 7.128 4.98a.31.31 0 01-.027.442.316.316 0 01-.445-.031c-2.246-2.293-4.739-3.387-7.055-3.848-4.234-.843-7.805.535-7.805.535zm0 0" fill-rule="evenodd"/><path fill="#fff" d="M790.352 49.797a.587.587 0 01-.766-.89s3.055-2.837 7.582-3.579c2.48-.406 5.375-.16 8.473 1.438a1.28 1.28 0 11-1.27 2.222c-2.473-1.558-4.879-1.968-6.98-1.808-4.098.312-7.04 2.617-7.04 2.617zm36.617 75.355a3.025 3.025 0 014.062-1.324 3.024 3.024 0 011.324 4.067l-2.68 3.246a2.108 2.108 0 01-2.831.922 2.108 2.108 0 01-.922-2.833zm0 0" fill-rule="evenodd"/><path fill="#fff" d="M829.965 129.418a3.023 3.023 0 01-1.836-5.762s10.055-2.726 21.219.856c5.746 1.843 11.808 5.285 16.847 11.761a.746.746 0 01-.074 1.047.742.742 0 01-1.047-.07c-5.304-5.418-11.199-8.004-16.672-9.094-10.007-1.996-18.437 1.262-18.437 1.262zm0 0" fill-rule="evenodd"/><path fill="#fff" d="M793.914 130.465a1.386 1.386 0 01-1.809-2.102s7.215-6.703 17.915-8.457c5.859-.957 12.699-.379 20.02 3.399a3.023 3.023 0 011.12 4.125 3.02 3.02 0 01-4.12 1.125c-5.849-3.688-11.532-4.649-16.497-4.27-9.684.738-16.629 6.18-16.629 6.18zm-48.68-17.965a3.061 3.061 0 014.114-1.34 3.061 3.061 0 011.34 4.113l-2.711 3.282a2.132 2.132 0 01-2.864.933 2.126 2.126 0 01-.933-2.863zm0 0" fill-rule="evenodd"/><path fill="#fff" d="M748.27 116.813a3.055 3.055 0 01-3.84-1.985 3.054 3.054 0 011.984-3.84s10.168-2.761 21.461.864c5.813 1.863 11.941 5.347 17.04 11.898a.753.753 0 01-.071 1.059.749.749 0 01-1.059-.07c-5.367-5.485-11.332-8.098-16.867-9.2-10.121-2.02-18.648 1.273-18.648 1.273zm0 0" fill-rule="evenodd"/><g clip-path="url(#a)"><path fill="#fff" d="M711.805 117.871a1.403 1.403 0 01-1.832-2.125s7.297-6.781 18.117-8.55c5.93-.973 12.851-.383 20.254 3.433a3.058 3.058 0 01-3.035 5.309c-5.914-3.727-11.664-4.7-16.688-4.317-9.793.746-16.816 6.25-16.816 6.25zm0 0" fill-rule="evenodd"/></g><path fill="#fff" d="M770.176 155.844a3.344 3.344 0 014.492-1.461 3.34 3.34 0 011.46 4.488l-2.956 3.586a2.33 2.33 0 01-3.129 1.02 2.328 2.328 0 01-1.02-3.13zm0 0" fill-rule="evenodd"/><path fill="#fff" d="M773.492 160.555a3.339 3.339 0 01-4.195-2.168 3.338 3.338 0 012.164-4.196s11.105-3.011 23.437.946c6.348 2.035 13.04 5.84 18.606 12.992a.82.82 0 01-.078 1.156.821.821 0 01-1.156-.078c-5.86-5.988-12.372-8.84-18.418-10.047-11.051-2.203-20.36 1.395-20.36 1.395zm0 0" fill-rule="evenodd"/><path fill="#fff" d="M733.672 161.71a1.532 1.532 0 01-2-2.32s7.969-7.406 19.785-9.34c6.473-1.062 14.027-.417 22.113 3.75a3.346 3.346 0 011.242 4.56 3.342 3.342 0 01-4.558 1.238c-6.457-4.07-12.73-5.133-18.219-4.715-10.691.816-18.363 6.828-18.363 6.828zm101.762 28.407a3.795 3.795 0 015.093-1.656 3.79 3.79 0 011.657 5.09l-3.356 4.062a2.637 2.637 0 11-4.7-2.39zm0 0" fill-rule="evenodd"/><g clip-path="url(#b)"><path fill="#fff" d="M839.191 195.46a3.792 3.792 0 01-4.757-2.456 3.792 3.792 0 012.457-4.758s12.59-3.414 26.57 1.07c7.195 2.309 14.785 6.621 21.094 14.73a.927.927 0 01-.09 1.31.924.924 0 01-1.309-.086c-6.644-6.79-14.027-10.024-20.879-11.391-12.53-2.496-23.086 1.582-23.086 1.582zm0 0" fill-rule="evenodd"/></g><path fill="#fff" d="M794.047 196.77a1.74 1.74 0 01-2.445-.184 1.738 1.738 0 01.183-2.45s9.031-8.394 22.43-10.585c7.336-1.203 15.902-.477 25.066 4.254a3.785 3.785 0 01-3.758 6.57c-7.32-4.613-14.433-5.82-20.652-5.344-12.125.922-20.824 7.739-20.824 7.739zm0 0" fill-rule="evenodd"/><g clip-path="url(#c)"><g clip-path="url(#d)"><g clip-path="url(#e)"><path fill="#fff" d="M126.871 390.305a.618.618 0 00.867.082l29.032-23.895a.618.618 0 00.085-.867.623.623 0 00-.87-.086l-29.032 23.895a.623.623 0 00-.082.87zm36.172-29.774a.618.618 0 00.867.086l.953-.785a.618.618 0 00-.785-.953l-.953.785a.618.618 0 00-.082.867zm8.086-6.656c.215.262.605.3.867.082l29.031-23.894a.618.618 0 00.086-.868.62.62 0 00-.87-.082l-29.032 23.895a.618.618 0 00-.082.867zm36.176-29.766a.613.613 0 00.867.082l.95-.78a.615.615 0 10-.782-.954l-.953.785a.614.614 0 00-.082.867zm8.086-6.66a.614.614 0 00.867.086l12.773-10.515c-.136-.153-.265-.313-.398-.473-.133-.16-.262-.32-.387-.48l-12.773 10.515a.615.615 0 00-.082.867zm0 0"/></g></g></g><g clip-path="url(#f)"><g clip-path="url(#g)"><g clip-path="url(#h)"><path fill="#fff" d="M134.45 341.566a.624.624 0 00.827.293l33.946-16.16a.617.617 0 00.289-.824c-.024-.043-.047-.086-.082-.125a.63.63 0 00-.743-.164l-33.953 16.16a.616.616 0 00-.289.82zm42.296-20.132a.616.616 0 00.824.289l1.114-.532a.61.61 0 00.289-.82c-.024-.043-.047-.094-.082-.133a.628.628 0 00-.743-.164l-1.113.535a.62.62 0 00-.289.825zm9.465-4.508a.605.605 0 00.816.293l33.953-16.16a.613.613 0 00.297-.825c-.023-.043-.047-.09-.082-.125a.616.616 0 00-.742-.164L186.5 316.102a.615.615 0 00-.29.824zm0 0"/></g></g></g><g clip-path="url(#i)"><g clip-path="url(#j)"><g clip-path="url(#k)"><path fill="#fff" d="M92.016 316.66a.612.612 0 00.726.477l36.852-7.465a.618.618 0 00.48-.73.558.558 0 00-.12-.262.63.63 0 00-.602-.22L92.5 315.93a.625.625 0 00-.484.73zm45.918-9.3a.61.61 0 00.722.48l1.211-.242a.619.619 0 00.48-.723.544.544 0 00-.128-.27.637.637 0 00-.602-.214l-1.21.242a.625.625 0 00-.481.73zm10.265-2.087a.615.615 0 00.723.485l36.851-7.469a.619.619 0 00.48-.723.544.544 0 00-.128-.27.622.622 0 00-.602-.214l-36.847 7.473a.615.615 0 00-.485.722zm45.91-9.296a.616.616 0 00.723.48l1.211-.242a.619.619 0 00.484-.723.516.516 0 00-.129-.265.626.626 0 00-.605-.22l-1.207.25a.613.613 0 00-.48.723zm10.266-2.086a.617.617 0 00.73.48l16.098-3.258c-.09-.398-.168-.804-.238-1.207l-16.106 3.27a.613.613 0 00-.48.722zm0 0"/></g></g></g><g clip-path="url(#l)"><g clip-path="url(#m)"><g clip-path="url(#n)"><path fill="#fff" d="M137.574 277.895a.626.626 0 00.594.648l37.555 1.668a.62.62 0 00.648-.586.62.62 0 00-.14-.422.597.597 0 00-.446-.223l-37.57-1.668a.609.609 0 00-.645.586zm46.801 2.082a.615.615 0 00.594.644l1.23.059a.614.614 0 00.504-1.008.649.649 0 00-.45-.23l-1.23-.051a.625.625 0 00-.644.593zm10.469.468a.632.632 0 00.594.645l25.023 1.11c.008-.407.035-.821.066-1.235l-25.035-1.11a.623.623 0 00-.648.59zm0 0"/></g></g></g><g clip-path="url(#o)"><g clip-path="url(#p)"><g clip-path="url(#q)"><path fill="#fff" d="M95.82 235.273a.618.618 0 00.414.77l36.04 10.71a.63.63 0 00.773-.417.659.659 0 00-.113-.566.612.612 0 00-.301-.196l-36.04-10.71a.623.623 0 00-.773.417zm44.903 13.336a.618.618 0 00.414.77l1.183.351a.615.615 0 00.766-.414.588.588 0 00-.113-.566.599.599 0 00-.305-.195l-1.176-.352a.636.636 0 00-.773.414zm10.047 2.993a.631.631 0 00.414.77l36.043 10.706a.621.621 0 00.77-.414.627.627 0 00-.114-.566.586.586 0 00-.301-.2l-36.039-10.707a.618.618 0 00-.77.414zm44.898 13.34a.633.633 0 00.414.769l1.184.348a.618.618 0 00.656-.98.6.6 0 00-.297-.2l-1.184-.348a.626.626 0 00-.77.414zm10.05 2.984a.624.624 0 00.415.773l15.781 4.688c.117-.387.238-.79.375-1.176l-15.8-4.691a.617.617 0 00-.77.418zm0 0"/></g></g></g><g clip-path="url(#r)"><g clip-path="url(#s)"><g clip-path="url(#t)"><path fill="#fff" d="M128.574 207.297a.62.62 0 00.223.84l32.379 19.11a.61.61 0 00.84-.22.617.617 0 00-.051-.703.625.625 0 00-.164-.137l-32.38-19.109a.622.622 0 00-.847.219zm40.352 23.808a.61.61 0 00.215.84l1.062.63a.615.615 0 10.621-1.063l-1.058-.63a.61.61 0 00-.84.223zm9.015 5.32a.62.62 0 00.215.845l32.387 19.105a.61.61 0 00.84-.219.617.617 0 00-.051-.703.625.625 0 00-.164-.137l-32.387-19.105a.612.612 0 00-.84.215zm40.352 23.805a.615.615 0 00.215.844l1.058.63a.616.616 0 00.844-.216.623.623 0 00-.219-.847l-1.058-.625a.614.614 0 00-.84.214zm0 0"/></g></g></g><g clip-path="url(#u)"><g clip-path="url(#v)"><g clip-path="url(#w)"><path fill="#fff" d="M137.395 166.074l26.796 26.367a.608.608 0 00.868-.004.617.617 0 00.039-.824.127.127 0 00-.051-.05l-26.79-26.375a.618.618 0 00-.874.011.608.608 0 00.012.875zm33.382 32.86l.875.867a.614.614 0 00.875-.008.617.617 0 00.04-.824c-.012-.02-.032-.031-.047-.051l-.88-.867a.618.618 0 00-.863.883zm7.465 7.351l26.797 26.371a.608.608 0 00.867-.008.608.608 0 00.04-.82.117.117 0 00-.048-.05l-26.793-26.376a.617.617 0 10-.863.883zm33.383 32.863l.879.868a.618.618 0 00.875-.012.607.607 0 00.035-.82.117.117 0 00-.047-.051l-.879-.867a.61.61 0 00-.87.007.621.621 0 00.007.875zm7.473 7.348l11.875 11.684c.289-.285.59-.578.89-.848l-11.898-11.715a.618.618 0 00-.863.883zm0 0"/></g></g></g><g clip-path="url(#x)"><g clip-path="url(#y)"><g clip-path="url(#z)"><path fill="#fff" d="M239.082 252.09a.59.59 0 00-.398.21c.136-.073.27-.144.398-.21zm-5.652-8.18l.61 1.07a.618.618 0 00.839.227.604.604 0 00.226-.832l-.613-1.078a.61.61 0 00-.836-.227.619.619 0 00-.226.84zm-23.262-40.668l18.664 32.64a.623.623 0 00.848.227.618.618 0 00.226-.836l-18.664-32.64c-.02-.035-.031-.063-.054-.09a.618.618 0 00-1.012.7zm-5.203-9.094l.62 1.075a.61.61 0 00.833.226.619.619 0 00.227-.847l-.61-1.07c-.023-.032-.039-.06-.058-.087a.62.62 0 00-1.012.703zm-23.25-40.668l18.664 32.641a.609.609 0 00.836.227c.3-.16.398-.543.23-.832l-18.664-32.641a.602.602 0 00-.062-.086.611.611 0 00-1.004.691zm0 0"/></g></g></g><g clip-path="url(#A)"><g clip-path="url(#B)"><g clip-path="url(#C)"><path fill="#fff" d="M240.957 232.984l5.086 16.168c.398-.117.793-.23 1.191-.332l-5.093-16.21a.95.95 0 00-.11-.208.618.618 0 00-1.063.578zm-3.14-9.996l.37 1.176c.102.324.45.504.77.402a.618.618 0 00.406-.773l-.379-1.176a.504.504 0 00-.109-.207.625.625 0 00-.66-.2.617.617 0 00-.403.774zm-14.047-44.687l11.273 35.867a.62.62 0 00.773.406.62.62 0 00.399-.777l-11.278-35.863a.657.657 0 00-.109-.215.62.62 0 00-.664-.192.616.616 0 00-.394.774zm-3.145-9.996l.371 1.175c.102.325.45.504.774.403a.61.61 0 00.398-.77l-.371-1.18a.555.555 0 00-.11-.206.631.631 0 00-.664-.2.624.624 0 00-.402.774zm-14.047-44.688l11.281 35.871a.613.613 0 101.168-.367L207.75 123.25a.664.664 0 00-.113-.215.615.615 0 00-.66-.191.613.613 0 00-.403.77zm0 0"/></g></g></g><g clip-path="url(#D)"><g clip-path="url(#E)"><g clip-path="url(#F)"><path fill="#fff" d="M254.504 244.188l.207 3.484c.41-.016.82-.031 1.23-.031l-.207-3.528a.61.61 0 00-.14-.355.613.613 0 00-.508-.227.628.628 0 00-.582.656zm-.629-10.458l.078 1.227a.606.606 0 00.649.578.615.615 0 00.578-.656l-.078-1.227a.604.604 0 00-.137-.351.615.615 0 00-1.09.43zm-2.824-46.761l2.27 37.527a.63.63 0 00.656.582.62.62 0 00.578-.656l-2.266-37.531a.62.62 0 00-.652-.582.628.628 0 00-.578.656zm-.625-10.461l.074 1.23c.027.34.309.598.656.582a.633.633 0 00.578-.664l-.078-1.222a.61.61 0 00-.14-.356.597.597 0 00-.508-.226.608.608 0 00-.578.648zm-2.824-46.758l2.257 37.527c.028.336.32.602.657.582a.623.623 0 00.582-.656l-2.262-37.531a.705.705 0 00-.14-.36.627.627 0 00-.516-.218.614.614 0 00-.578.644zm0 0"/></g></g></g><g clip-path="url(#G)"><g clip-path="url(#H)"><g clip-path="url(#I)"><path fill="#fff" d="M266.61 231.32l-3.16 17c.398.075.8.16 1.202.258l3.168-17.027a.6.6 0 00-.129-.512.612.612 0 00-.359-.215.622.622 0 00-.723.492zm1.921-10.3l-.226 1.207a.62.62 0 001.218.226l.223-1.207a.613.613 0 00-.492-.723.625.625 0 00-.723.497zm8.57-46.051l-6.882 36.965a.617.617 0 001.215.226l6.886-36.965a.624.624 0 00-.492-.715.626.626 0 00-.723.497zm1.919-10.301l-.227 1.21a.625.625 0 00.492.72.622.622 0 00.727-.489l.222-1.21a.602.602 0 00-.132-.512.621.621 0 00-1.082.281zm8.574-46.055l-6.88 36.961a.612.612 0 00.485.719c.34.066.66-.16.727-.488l6.883-36.965a.594.594 0 00-.133-.508.618.618 0 00-1.082.281zm0 0"/></g></g></g><g clip-path="url(#J)"><g clip-path="url(#K)"><g clip-path="url(#L)"><path fill="#fff" d="M287.55 216.395l-15.62 34.199a.59.59 0 00.011.531.58.58 0 00.293.285.607.607 0 00.38.043.645.645 0 00.44-.348l15.622-34.199a.602.602 0 00-.086-.644.528.528 0 00-.223-.168.612.612 0 00-.812.304zm4.352-9.536l-.511 1.125a.608.608 0 00.304.813c.313.14.68.008.817-.305l.515-1.117a.615.615 0 00-.308-.816.62.62 0 00-.817.3zm19.457-42.609l-15.609 34.203a.604.604 0 00.305.813.611.611 0 00.816-.305l15.621-34.2a.615.615 0 00-.082-.648.657.657 0 00-.223-.168.611.611 0 00-.812.305zm0 0"/></g></g></g><g clip-path="url(#M)"><g clip-path="url(#N)"><g clip-path="url(#O)"><path fill="#fff" d="M290.043 241.887l-10.95 13.742c.325.254.641.52.954.793l10.965-13.766a.633.633 0 00-.004-.777c-.028-.035-.063-.059-.094-.09a.623.623 0 00-.867.098zm6.531-8.192l-.773.961a.632.632 0 00.097.871.625.625 0 00.872-.097l.765-.961a.622.622 0 000-.778.424.424 0 00-.098-.09.614.614 0 00-.863.094zm29.192-36.64l-23.434 29.406a.62.62 0 00.098.867.62.62 0 00.867-.098l23.426-29.406a.611.611 0 00-.004-.77.61.61 0 00-.953 0zm6.523-8.192l-.77.965a.614.614 0 00.958.77l.773-.961a.622.622 0 00-.098-.871.615.615 0 00-.863.097zm29.188-36.633l-23.427 29.4a.623.623 0 00.097.871.614.614 0 00.864-.094L362.445 153a.622.622 0 00-.097-.867.624.624 0 00-.871.097zm0 0"/></g></g></g><g clip-path="url(#P)"><g clip-path="url(#Q)"><g clip-path="url(#R)"><path fill="#fff" d="M291.004 258.105c.195.29.598.325.867.122l.977-.75a.616.616 0 00.113-.868l-.012-.015a.611.611 0 00-.851-.098l-.98.746a.616.616 0 00-.114.863zm8.324-6.37c.195.28.586.324.86.117l29.847-22.864a.62.62 0 00.117-.863l-.011-.023a.632.632 0 00-.86-.094l-29.844 22.86a.616.616 0 00-.109.866zm37.18-28.481c.187.285.59.324.863.117l.98-.75a.624.624 0 00.118-.867l-.012-.02a.64.64 0 00-.86-.097l-.976.75a.624.624 0 00-.113.867zm8.32-6.375c.195.289.598.324.867.121l29.848-22.863a.629.629 0 00.113-.871l-.008-.016a.62.62 0 00-.855-.098l-29.848 22.864a.616.616 0 00-.117.863zm0 0"/></g></g></g><g clip-path="url(#S)"><g clip-path="url(#T)"><g clip-path="url(#U)"><path fill="#fff" d="M289.965 270.426l16.285-7.07a.621.621 0 00.324-.813c-.027-.047-.05-.098-.082-.145a.612.612 0 00-.726-.168l-16.27 7.063c.164.375.324.754.469 1.137zm23.96-11.067a.62.62 0 00.813.317l1.125-.492a.612.612 0 00.328-.809.573.573 0 00-.093-.145.619.619 0 00-.723-.168l-1.129.493a.618.618 0 00-.32.812zm9.614-4.175a.612.612 0 00.809.328l34.496-14.969a.607.607 0 00.226-.95.621.621 0 00-.722-.175l-34.493 14.965a.606.606 0 00-.32.804zm42.969-18.641c.137.312.5.457.812.324l1.13-.492a.626.626 0 00.323-.813 1.761 1.761 0 00-.086-.144.605.605 0 00-.722-.168l-1.13.488a.62.62 0 00-.323.813zm9.617-4.168c.137.313.5.457.809.32l34.5-14.965a.615.615 0 00.316-.808.457.457 0 00-.094-.145.615.615 0 00-.719-.175l-34.496 14.964a.62.62 0 00-.324.813zm0 0"/></g></g></g><g clip-path="url(#V)"><g clip-path="url(#W)"><g clip-path="url(#X)"><path fill="#fff" d="M292.145 278.766l3.996-.668a.614.614 0 00.511-.711.668.668 0 00-.132-.293.625.625 0 00-.579-.219l-3.98.66c.066.406.129.813.18 1.223zm12.414-2.688a.616.616 0 00.707.504l1.21-.203a.615.615 0 00.512-.711.603.603 0 00-.136-.29.606.606 0 00-.575-.218l-1.21.203a.624.624 0 00-.508.715zm10.34-1.726c.054.34.367.566.699.507l37.09-6.175a.616.616 0 00.375-1.004.621.621 0 00-.575-.22l-37.09 6.18a.614.614 0 00-.503.708zm46.203-7.696a.614.614 0 00.707.504l1.21-.2a.614.614 0 00.508-.71.621.621 0 00-.707-.512l-1.21.203a.623.623 0 00-.508.715zm10.34-1.719a.61.61 0 00.699.508l37.09-6.18a.607.607 0 00.507-.706.621.621 0 00-.707-.512l-37.09 6.18a.614.614 0 00-.503.707zm0 0"/></g></g></g><g clip-path="url(#Y)"><g clip-path="url(#Z)"><g clip-path="url(#aa)"><path fill="#fff" d="M271.941 251.125c.227.105.45.215.672.328a.586.586 0 01-.379-.043.63.63 0 01-.293-.285zm0 0"/></g></g></g><path fill="#fff" d="M1280.504 286.82c5.566.39 11.527-.46 16.3-3.511 2.145-1.375 4.005-3.18 5.348-5.352 1.328-2.148 2.266-4.719 2.106-7.273-.18-2.793-1.621-5.832-4.664-6.32-.512-.083-1.164.042-1.414.574-1.727 3.687-.996 8.023 1.441 11.222 2.707 3.55 7.09 5.227 11.484 5.149 4.586-.082 8.84-1.977 12.297-4.926 1.696-1.453 3.164-3.153 4.453-4.973 1.368-1.93 2.567-4.039 3.278-6.3.785-2.485.824-5.133-.242-7.532-.961-2.164-2.82-3.902-5.13-4.504-.671-.176-1.331.223-1.538.871-.907 2.86-1.559 6.852 1.004 9.094 3.046 2.672 7.328.941 10.351-.832 5.906-3.457 10.762-9.402 11.863-16.285 1.079-6.738-1.355-14.05-6.78-18.344-1.583-1.254-3.438-2.375-5.524-2.351-1.848.015-3.727 1.085-4.39 2.859-.653 1.742.284 3.457 1.698 4.465 1.387.984 3.157 1.316 4.825 1.293 3.445-.055 6.964-1.625 9.171-4.297 2.547-3.078 3.102-7.14 2.68-11.008-.695-6.402-3.664-14.117-10.418-16.223-1.754-.546-4.027-.226-4.668 1.766-.594 1.848.73 3.691 2.457 4.246 1.832.586 3.95-.101 5.492-1.133a10.057 10.057 0 003.438-3.949c1.808-3.734 1.226-7.941-.379-11.637-1.418-3.265-3.746-6.168-6.703-8.164-3-2.023-6.66-2.898-10.242-2.414-3.309.45-6.832 2.137-8.118 5.403-.523 1.32-.652 2.976.13 4.226 1.054 1.692 3.234 2.05 5.015 1.41 3.262-1.172 5.125-4.73 4.684-8.101-.485-3.688-3.176-6.645-6.184-8.614-2.668-1.746-5.758-2.714-8.906-3.07-6.196-.7-12.895 1.27-17.356 5.711-1.347 1.34-2.66 2.988-2.765 4.961-.094 1.762 1.175 3.496 2.922 3.875 2.16.473 3.636-1.285 3.996-3.25.332-1.812-.04-3.644-.907-5.262-1.847-3.437-5.671-5.175-9.347-5.879-3.973-.761-8.262-.722-12.067.75-3.328 1.29-6.351 3.664-7.925 6.93-.743 1.543-1.391 3.465-.97 5.184.49 2.02 2.641 2.773 4.427 1.933 1.855-.879 2.343-3.133 1.664-4.941-.614-1.633-1.883-2.922-3.399-3.746-3.043-1.66-6.8-1.785-10.187-1.61-3.73.196-7.567.996-10.746 3.047-2.848 1.832-5.051 4.746-5.696 8.114-.605 3.148.149 7.464 3.477 8.812 1.937.781 3.914-.387 3.988-2.527.059-1.742-.941-3.5-2.086-4.746-2.344-2.559-5.941-3.735-9.332-3.871-3.348-.141-6.754.75-9.648 2.421-2.848 1.645-5.297 4.121-6.64 7.149-1.388 3.12-1.708 6.586-1.017 9.926.66 3.164 2.29 6.132 4.641 8.351 1.172 1.106 2.945-.66 1.77-1.77-3.946-3.726-5.313-9.671-3.426-14.757 1.828-4.938 6.973-8.25 12.094-8.754 2.656-.262 5.418.117 7.754 1.465 1.14.656 2.167 1.535 2.82 2.695.27.48.5 1.027.562 1.578.016.145.043.371-.011.512-.02.059-.176.16-.036.07-.152.035-.18.047-.078.024-.156-.008-.191-.008-.101.007-2.282-.515-2.66-3.91-2.348-5.761.438-2.578 1.965-4.957 4.102-6.461 2.484-1.75 5.488-2.61 8.484-2.91 2.848-.29 5.914-.344 8.684.468 1.156.336 2.277.86 3.125 1.727.671.691 1.62 2.316.707 3.102-.23.199-.653.34-.891.214a.92.92 0 01-.18-.195c-.152-.273-.117-.672-.09-.976.11-1.254.668-2.52 1.336-3.586 3.43-5.47 10.688-6.586 16.575-5.457 2.918.558 6.074 1.734 7.672 4.414.648 1.082 1.035 2.382.835 3.648-.078.488-.234 1.277-.746 1.5-.07.027-.171.008-.316-.031a1.299 1.299 0 01-.496-.281c-1.008-.875-.098-2.403.613-3.278a14.67 14.67 0 012.715-2.562c2.094-1.528 4.469-2.555 6.988-3.121 4.903-1.106 10.317-.395 14.567 2.418 2.273 1.504 4.449 3.773 4.894 6.562.348 2.188-.812 4.945-3.14 5.629-.551.16-1.157.219-1.657-.102a.716.716 0 01-.254-.253c-.007-.016-.171-.36-.085-.137a2.29 2.29 0 01-.126-.48c.04.245 0-.173 0-.18 0-.137.004-.27.016-.403-.02.223.043-.222.043-.21a4.5 4.5 0 01.824-1.81c.668-.886 1.946-1.628 3.047-2.054 1.305-.5 2.688-.738 4.086-.734 5.899.008 10.746 4.414 12.89 9.675 1.169 2.872 1.66 6.297.18 9.153-.605 1.16-1.46 2.203-2.57 2.914-.965.617-2.625 1.363-3.723.633-.347-.23-.437-.551-.44-.938.003.168.112-.152.026-.043-.039.059-.097.031.075-.09.18-.132.386-.14.597-.14 1.239-.008 2.594.863 3.551 1.578 2.047 1.523 3.5 3.812 4.422 6.16 1.082 2.742 1.687 5.746 1.672 8.695-.016 2.977-.883 5.883-3.16 7.907-2.004 1.78-4.887 2.73-7.559 2.39-.988-.129-2.234-.578-2.766-1.355-.226-.324-.32-.656-.175-1.024.207-.523.75-.875 1.265-1.047 1.403-.48 2.903.344 4.028 1.122 1.129.78 2.132 1.761 3.011 2.816 1.75 2.117 2.899 4.71 3.457 7.39 1.141 5.454-.578 11.083-4.078 15.344a24.104 24.104 0 01-6.46 5.516c-1.97 1.156-5.544 3.074-7.544 1.016-.691-.711-.859-1.743-.843-2.762.015-1.254.324-2.485.707-3.684-.516.29-1.028.582-1.54.871 1.575.41 2.735 1.536 3.454 2.97.804 1.605.82 3.46.398 5.171-.5 2.047-1.52 3.914-2.668 5.66a25.702 25.702 0 01-3.594 4.367c-2.699 2.61-6.097 4.536-9.855 5.032-3.555.468-7.531-.293-10.184-2.852-2.504-2.418-3.832-6.379-2.308-9.633l-1.41.574c.558.09.796.164 1.226.438.102.062.219.156.399.34.226.226.23.23.414.523.476.762.73 1.723.785 2.606.133 2.129-.621 4.164-1.762 6.011-2.328 3.77-6.422 6.016-10.723 7.024-2.87.676-5.832.805-8.765.601-.672-.046-1.25.61-1.25 1.25-.004.72.57 1.207 1.246 1.254zm0 0"/><path fill="#fff" d="M1229.895 213.621c.964.95 2.39.742 3.316-.144.945-.903 1.086-2.278.445-3.395-.617-1.066-1.773-1.687-2.898-2.07-1.106-.375-2.278-.567-3.442-.625-4.757-.227-9.246 2.133-12.046 5.914-1.348 1.812-2.286 3.972-2.743 6.183-.492 2.383-.574 5.02.305 7.325.871 2.296 2.578 4.027 4.691 5.238 1.024.586 2.125 1.05 3.235 1.445 1.308.465 2.75.785 4.129.422 1.218-.324 2.191-1.254 2.625-2.426.43-1.168.05-2.52-.93-3.281-1.82-1.406-4.383-.57-6.129.54-3.75 2.374-5.723 6.85-5.812 11.187-.051 2.582.492 5.171 1.351 7.597.828 2.344 1.89 4.672 3.196 6.79 1.207 1.952 2.777 3.816 4.878 4.835 1.172.57 2.422.903 3.704 1.114 1.41.226 2.87.464 4.21-.176 1.227-.59 2.04-2.028 1.653-3.375-.36-1.254-1.684-2.059-2.95-2.047-2.636.027-4.343 2.832-5.234 4.973-.89 2.148-1.215 4.488-1.523 6.773-.29 2.18-.473 4.379-.387 6.578.18 4.48 1.547 9.031 5.05 12.043 3.548 3.043 8.274 4.219 12.84 4.527 2.528.172 5.145.024 7.579-.726a14.336 14.336 0 005.804-3.442c1.586-1.546 2.786-3.437 3.575-5.503.765-2.004 1.176-4.375.77-6.508-.243-1.242-1.06-2.332-2.286-2.727-1.023-.328-2.191-.031-3.078.524-2.004 1.25-2.828 3.617-2.547 5.902.293 2.363 1.473 4.547 3.258 6.125 1.836 1.621 4.09 2.637 6.422 3.336 4.715 1.414 10.32 2.031 14.789-.488 1.887-1.063 3.547-2.692 4.527-4.633a9.487 9.487 0 00.977-3.266c.136-1.203.11-2.863-1.098-3.523-1.172-.645-2.508.004-3.398.832-.43.402-.758.91-1.078 1.398-.34.52-.649 1.055-.891 1.621-.531 1.239-.742 2.512-.465 3.84a5.875 5.875 0 001.668 2.961c.594.57 1.3 1.02 2.11 1.215.706.172 1.445.242 2.167.297 1.692.129 3.399.105 5.09.004 1.465-.09 2.988-.2 4.41-.59.63-.176 1.082-.899.871-1.54-.207-.644-.863-1.062-1.539-.874-.246.07-.496.125-.746.172-.12.023-.242.043-.36.062-.077.016-.155.027-.23.04l-.16.023c-.136.02-.105.015.09-.012-.086-.043-.41.05-.512.062-.148.016-.296.032-.449.047-.406.04-.816.07-1.226.098a40.817 40.817 0 01-4.586.05 22.8 22.8 0 01-.942-.066c-.156-.015-.312-.03-.465-.047a.723.723 0 01-.148-.02c.387.103.082.013-.02-.003a8.53 8.53 0 01-.687-.14c-.09-.024-.176-.055-.266-.083-.222-.058.149-.02.137.067 0 0-.226-.121-.203-.11-.102-.054-.191-.12-.29-.18-.034-.023-.187-.144-.019-.011-.18-.145-.343-.3-.496-.469-.015-.02-.25-.312-.093-.101a4.604 4.604 0 01-.52-.89c.105.245-.031-.103-.04-.13a4.522 4.522 0 01-.163-.664c.055.281-.008-.078-.012-.121-.012-.191-.004-.379 0-.57.008-.336-.05.191.024-.184a5.76 5.76 0 01.125-.527c.25-.836.836-1.754 1.418-2.582-.168.234.039-.04.07-.075.074-.082.152-.16.234-.234.032-.023.313-.226.094-.082.09-.058.18-.117.273-.172.016-.008.309-.113.13-.066-.184.05.117-.024.128-.024-.05.004-.101.012-.156.016.145.004.117-.008-.074-.031.129.035.105.023-.067-.043-.136-.121-.152-.133-.054-.04-.102-.14-.09-.21-.07-.019-.024-.207.011.168.011.168.012.192.02.38.016.57a7.945 7.945 0 01-.047.68c.031-.289-.012.078-.02.113-.02.114-.039.223-.066.332-.05.22-.11.438-.18.653-.031.11-.07.215-.11.32-.01.027-.148.375-.042.121a8.74 8.74 0 01-.64 1.211c-.126.195-.259.383-.391.57-.22.301.086-.105-.055.067-.063.078-.121.152-.184.226a10.648 10.648 0 01-1.246 1.227c-.011.012-.312.254-.11.098a9.553 9.553 0 01-.573.406c-.387.258-.793.488-1.215.691a5.94 5.94 0 01-.317.149c.258-.117-.148.058-.152.058a12.987 12.987 0 01-2.914.75c-.281.032-.559.059-.836.078-.562.036-1.125.043-1.687.028-2.141-.063-4.137-.461-6.266-1.086a24.801 24.801 0 01-1.496-.492 11.25 11.25 0 01-1.27-.535c-.43-.207-.847-.43-1.257-.68a10.24 10.24 0 01-.649-.422 9.265 9.265 0 01-.316-.227c.148.11-.16-.125-.157-.125-.39-.32-.757-.668-1.097-1.043-.082-.09-.157-.187-.239-.28a7.806 7.806 0 01-.512-.742 8.578 8.578 0 01-.46-.864c-.008-.008-.16-.38-.07-.149a8.104 8.104 0 01-.422-1.449 3.618 3.618 0 01-.047-.297c.035.274-.008-.117-.008-.14a7.224 7.224 0 01-.016-.711l.024-.356c.02-.25.008-.078 0-.023a5.881 5.881 0 01.297-1.14c-.106.284.02-.024.043-.071a4.46 4.46 0 01.273-.438c-.16.235.035-.039.066-.074.07-.078.141-.156.22-.226.073-.075.152-.141.23-.211.109-.09.109-.09-.008.003.058-.039.113-.078.172-.113.14-.094.289-.168.437-.246-.27.137.008.004.067-.016.09-.03.183-.046.277-.074.285-.082-.262-.011.031-.004.09 0 .184.004.274 0-.043.004-.282-.066-.067-.004.102.028.387.184.125.02.078.05.16.09.239.144-.258-.171.011.032.054.079-.16-.168.063.093.082.125.04.066.078.14.106.21-.098-.234.031.133.035.149.031.117.055.238.078.36.078.367.004-.227.02.152.003.16.02.324.02.488.007.422-.009.848-.044 1.273-.008.114-.023.227-.035.344-.035.38.047-.25-.016.125-.039.23-.074.457-.125.684a13.247 13.247 0 01-.539 1.887c-.043.109-.086.214-.125.324-.054.136-.058.144-.008.023-.03.07-.062.14-.09.211-.367.813-.804 1.59-1.316 2.317-.066.093-.137.187-.203.28-.223.31.149-.179-.086.114a13.727 13.727 0 01-1.934 1.988c-.058.051-.12.098-.18.149-.292.242.192-.137-.112.086a12.58 12.58 0 01-1.153.77c-.902.534-1.62.84-2.62 1.136a15.106 15.106 0 01-3.04.582c-1.101.098-2.21.102-3.316.043-.52-.027-1.035-.07-1.547-.121a22.19 22.19 0 01-.735-.086c-.406-.05.243.039-.16-.02-.16-.027-.324-.05-.488-.078a25.233 25.233 0 01-2.793-.61c-3.578-1.01-6.7-2.952-8.445-6.265a9.65 9.65 0 01-.317-.636c-.047-.11-.097-.215-.144-.325.101.239-.047-.125-.055-.14a16.625 16.625 0 01-.766-2.63c-.046-.238-.09-.476-.128-.714-.02-.121-.04-.238-.055-.36-.047-.296.008.126-.02-.148-.226-1.976-.218-3.96-.054-5.941.035-.457.082-.91.132-1.367.024-.227.051-.454.079-.676.011-.102.027-.203.039-.309.02-.152.023-.16.004-.031l.035-.242c.14-1.008.3-2.016.511-3.012.204-.965.477-1.906.82-2.828.145-.387-.097.203.071-.172a10.194 10.194 0 01.84-1.547c.07-.105.144-.207.219-.312a3.572 3.572 0 00.195-.243 5.884 5.884 0 01.715-.719c-.168.141.152-.105.156-.105.105-.066.211-.129.324-.183-.207.101.149-.047.164-.051.051-.016.418-.05.133-.04.106-.003.203-.003.309.005-.313-.024.011.027.07.039.281.058-.156-.13.078.031.055.04.274.234.074.035.055.055.207.281.067.043.031.059.066.11.094.168-.016-.035-.036-.074-.051-.117.031.137.035.129.008-.024 0 .04.003.079.003.114.028-.145.024-.149-.007 0-.047.136-.043.14.004.011-.04.067-.079.133-.122.196.149-.203-.09.078-.113.094.153-.141-.023.02-.074.05-.05.032-.277.137-.066.051-.133.055-.274.086-.41.117-.337.078.12.028-.227.024-.145 0-.285.008-.43 0a5.427 5.427 0 01-.43-.032c.012.004-.386-.043-.234-.023-1.105-.14-2.219-.355-3.262-.738-1.629-.594-3.027-1.957-4.004-3.375a23.514 23.514 0 01-1.52-2.59 41.249 41.249 0 01-1.312-2.774 28.469 28.469 0 01-1.148-3.253 22.934 22.934 0 01-.379-1.528 18.77 18.77 0 01-.156-.84 8.453 8.453 0 01-.094-.652 16.34 16.34 0 01-.05-3.328c.007-.074.074-.613.034-.348a12.934 12.934 0 01.457-2.02c.067-.222.141-.44.22-.656.038-.109.077-.218.12-.324.012-.023.16-.37.051-.125.188-.422.39-.832.617-1.23.207-.363.434-.715.68-1.055.012-.02.238-.32.074-.11.07-.09.14-.175.215-.261.145-.176.293-.344.45-.508.308-.324.64-.625.988-.914.277-.23-.2.133.101-.074.059-.043.121-.09.18-.129a7.92 7.92 0 01.664-.422c.195-.113.39-.219.598-.312.066-.036.136-.067.203-.098.336-.152-.227.074.12-.047.196-.066.387-.133.59-.184.102-.023.204-.042.31-.066.241-.05-.192-.004.132-.008.191-.004.375-.004.566 0-.308-.008-.011 0 .063.016.094.023.184.055.277.082-.277-.078-.031-.016.043.027.028.016.235.192.106.063-.14-.14.07.086.078.094-.254-.25.11.257-.016-.047.04.093.063.191.082.289-.062-.313-.023-.012-.023.058-.004-.289.004-.03-.024.059-.02.066-.039.133-.062.195.105-.277-.027.028-.055.07-.027.043-.23.297-.05.09-.07.082-.15.153-.22.23-.109.095-.105.099.008.009a4.72 4.72 0 01-.175.12c-.063.036-.125.067-.188.102.258-.14-.078.024-.129.04-.32.093-.367.09-.648.09-.551.003-.934-.09-1.524-.266-.468-.141-.93-.309-1.386-.489a5.28 5.28 0 01-.344-.14c.223.093-.152-.067-.16-.067a17.9 17.9 0 01-.785-.375 13.817 13.817 0 01-1.794-1.082 2.996 2.996 0 00-.163-.125c.062.047.039.031-.067-.054l-.187-.153a8.765 8.765 0 01-1.02-1.031 6.618 6.618 0 01-.156-.188c.148.192-.086-.128-.09-.136a7.447 7.447 0 01-.457-.754c-.234-.442-.328-.684-.48-1.215a9.388 9.388 0 01-.196-.793 7.405 7.405 0 01-.094-.613 12.923 12.923 0 01-.027-2.317c.008-.125.02-.246.031-.37.004-.044.063-.524.032-.282.265-1.988.855-3.656 1.808-5.273a14.49 14.49 0 01.962-1.434c-.145.184.105-.133.109-.137.18-.219.37-.437.566-.648a13.059 13.059 0 011.418-1.317c.066-.058.406-.3.578-.418.383-.253.777-.488 1.18-.703.55-.289.828-.41 1.3-.582a12.726 12.726 0 012.043-.562 4.82 4.82 0 01.25-.043c.079-.016.165-.028.247-.04a12.195 12.195 0 013.015.005c-.262-.036.145.027.156.027l.247.047c.246.047.484.101.726.164.238.066.48.137.715.215.09.031.176.062.266.097.082.032.07.024-.036-.02.067.032.137.063.207.095.207.101.395.218.59.343.282.18-.133-.156.094.079.074.078.152.16.23.234-.148-.145-.039-.059-.003.004.023.039.171.344.07.078.039.101.066.207.086.316l-.024-.152c-.007.14 0 .121.024-.063-.027.086-.137.305.008.047-.047.082-.09.16-.145.235.035-.047.172-.168.02-.04-.078.067-.278.157-.028.036-.101.047-.3.097-.015.027-.094.024-.34.051.007.02-.269.023.278.086.02.004.05.015.375.261.203.09-.465-.461-1.308-.5-1.77 0-.449.496-.492 1.277.005 1.765zm118.875-5.445c.476.8.894 1.637 1.261 2.496-.043-.102-.086-.2-.125-.3.785 1.87 1.297 3.843 1.574 5.85l-.046-.331c.343 2.547.304 5.129-.036 7.675l.047-.332a33.383 33.383 0 01-1.156 5.27c-.187.625.227 1.39.875 1.539.676.152 1.336-.203 1.54-.875.866-2.863 1.378-5.852 1.46-8.844.082-2.953-.27-5.96-1.168-8.781a22.544 22.544 0 00-2.066-4.629c-.332-.566-1.14-.816-1.711-.45-.567.364-.805 1.11-.45 1.712zm6.07 3.367a23.635 23.635 0 011.215 4.937 24.001 24.001 0 01-.047 5.996l.047-.331a23.588 23.588 0 01-.559 2.804c-.168.633.211 1.387.871 1.54.656.148 1.363-.196 1.54-.876 1-3.797 1.07-7.816.238-11.652a23.361 23.361 0 00-.891-3.082c-.113-.313-.281-.574-.574-.746-.27-.16-.664-.227-.965-.13-.602.196-1.113.884-.875 1.54zm-48.11 74.152c4.286.848 8.782.59 12.922-.82a24.904 24.904 0 0013.86-11.71c.308-.58.164-1.392-.45-1.716-.582-.304-1.378-.164-1.71.45a23.754 23.754 0 01-1.887 2.956 24.074 24.074 0 01-4.285 4.29 23.531 23.531 0 01-4.96 2.863l.296-.13a23.842 23.842 0 01-6.043 1.642c.113-.016.222-.028.332-.043a24.001 24.001 0 01-6.328-.004 25.426 25.426 0 01-1.082-.191c-.332-.067-.665-.052-.961.124-.262.153-.508.45-.575.75-.144.621.188 1.403.871 1.54zm0 0"/><g clip-path="url(#ab)"><path fill="#fff" d="M1221.95 285.469c.78 1.777 2.07 3.324 3.53 4.582 1.497 1.289 3.18 2.363 4.95 3.238 3.648 1.809 7.683 2.813 11.757 2.879 2.274.039 4.567-.23 6.77-.793.633-.164 1.078-.906.875-1.54-.215-.655-.86-1.046-1.539-.874a23.87 23.87 0 01-2.719.531c.113-.015.223-.027.332-.043-2.234.301-4.504.29-6.738-.008.11.016.223.028.332.043a26.377 26.377 0 01-6.402-1.707c-1.907-.812-3.739-1.836-5.38-3.101.083.062.169.129.25.195-1.003-.781-1.933-1.66-2.71-2.668.062.086.129.172.195.254a10.923 10.923 0 01-1.344-2.25c-.117-.27-.476-.5-.746-.574-.3-.082-.699-.047-.965.125-.265.172-.503.43-.574.75-.078.344-.015.637.125.96zm0 0"/></g><g clip-path="url(#ac)"><path fill="#fff" d="M1215.559 205.852c-2.239.953-4.047 2.808-5.23 4.906-1.364 2.414-1.919 5.195-1.938 7.949-.016 1.672.175 3.344.445 4.992.047.293.332.606.574.75.27.156.664.223.965.125.3-.097.594-.285.746-.574.168-.316.184-.613.129-.965a33.45 33.45 0 01-.16-1.066c.015.11.027.222.043.332-.262-1.973-.34-3.973-.082-5.946-.016.11-.028.22-.043.333.172-1.266.484-2.508.98-3.688l-.129.3c.41-.964.934-1.874 1.575-2.702-.063.082-.13.168-.196.25a10.648 10.648 0 011.86-1.868c-.082.063-.168.13-.25.196a8.931 8.931 0 011.972-1.16c.27-.114.5-.48.575-.746.082-.301.043-.7-.125-.965-.172-.266-.43-.504-.75-.575l-.332-.046a1.25 1.25 0 00-.63.168zm0 0"/></g><path fill="#fff" d="M1267.117 171.738a21.364 21.364 0 00-9.297.504 22.404 22.404 0 00-8.234 4.328c-1.352 1.118-2.531 2.418-3.559 3.84-.18.25-.203.684-.125.965.078.29.305.605.575.75.289.152.64.23.964.125.325-.105.547-.297.746-.574.126-.172.25-.34.38-.508l-.196.254a19.726 19.726 0 013.524-3.512l-.254.195a21.222 21.222 0 014.652-2.707c-.102.043-.2.086-.3.13a21.137 21.137 0 015.3-1.458l-.332.047a20 20 0 015.203-.02c-.113-.011-.223-.027-.332-.042.207.027.414.058.625.093.34.059.652.055.961-.125.262-.152.508-.449.574-.75.074-.32.059-.68-.125-.964-.164-.254-.433-.516-.75-.57zm0 0"/><g clip-path="url(#ad)"><path fill="#fff" d="M1260.523 167.453a22.288 22.288 0 00-11.152 3.129 22.803 22.803 0 00-2.785 1.984c-.234.192-.367.594-.367.883 0 .309.136.672.367.883.238.219.55.383.883.367.351-.015.617-.144.883-.367.168-.137.335-.27.507-.402l-.254.195a20.901 20.901 0 014.625-2.695l-.3.129a21.17 21.17 0 015.347-1.465l-.332.047a20.277 20.277 0 012.578-.184c.653-.008 1.282-.574 1.25-1.25-.03-.676-.55-1.258-1.25-1.254zm0 0"/></g><g clip-path="url(#ae)"><path fill="#fff" d="M1307.152 170.355c.22-.035.438-.066.66-.093-.109.015-.222.027-.332.043a30.95 30.95 0 018.196.015c-.11-.015-.223-.027-.332-.043a31.383 31.383 0 017.61 2.032 30.45 30.45 0 013.116 1.527c.57.324 1.39.156 1.711-.445.313-.594.16-1.371-.449-1.715a32.138 32.138 0 00-7.75-3.117 32.806 32.806 0 00-8.27-1.024c-1.617.012-3.226.16-4.824.406-.289.047-.61.336-.75.575-.156.27-.222.664-.125.964.098.305.285.594.574.75.317.168.614.18.965.125zm0 0"/></g></svg>